<svg width="24" height="22" viewBox="0 0 24 22" fill="none" xmlns="http://www.w3.org/2000/svg">
<g filter="url(#filter0_d)">
<path fill-rule="evenodd" clip-rule="evenodd" d="M10.7071 0.292893C10.3166 -0.0976311 9.68342 -0.0976311 9.29289 0.292893L0.292892 9.29289C-0.0976315 9.68342 -0.0976315 10.3166 0.292892 10.7071L9.29289 19.7071C9.68342 20.0976 10.3166 20.0976 10.7071 19.7071C11.0976 19.3166 11.0976 18.6834 10.7071 18.2929L3.41422 11H23C23.5523 11 24 10.5523 24 10C24 9.44771 23.5523 9 23 9H3.41421L10.7071 1.70711C11.0976 1.31658 11.0976 0.683417 10.7071 0.292893Z" fill="white"/>
</g>
<defs>
<filter id="filter0_d" x="0" y="0" width="24" height="22" filterUnits="userSpaceOnUse" color-interpolation-filters="sRGB">
<feFlood flood-opacity="0" result="BackgroundImageFix"/>
<feColorMatrix in="SourceAlpha" type="matrix" values="0 0 0 0 0 0 0 0 0 0 0 0 0 0 0 0 0 0 127 0"/>
<feOffset dy="2"/>
<feColorMatrix type="matrix" values="0 0 0 0 0 0 0 0 0 0 0 0 0 0 0 0 0 0 0.25 0"/>
<feBlend mode="normal" in2="BackgroundImageFix" result="effect1_dropShadow"/>
<feBlend mode="normal" in="SourceGraphic" in2="effect1_dropShadow" result="shape"/>
</filter>
</defs>
</svg>
