<svg width="22" height="22" viewBox="0 0 22 22" fill="none" xmlns="http://www.w3.org/2000/svg">
<path fill-rule="evenodd" clip-rule="evenodd" d="M11 2C6.02944 2 2 6.02944 2 11C2 15.9706 6.02944 20 11 20C15.9706 20 20 15.9706 20 11C20 6.02944 15.9706 2 11 2ZM0 11C0 4.92487 4.92487 0 11 0C17.0751 0 22 4.92487 22 11C22 17.0751 17.0751 22 11 22C4.92487 22 0 17.0751 0 11ZM10.924 6.75738C11.3145 6.36686 11.9477 6.36686 12.3382 6.75738L15.8737 10.2929C16.0613 10.4804 16.1666 10.7348 16.1666 11C16.1666 11.2652 16.0613 11.5196 15.8737 11.7071L12.3382 15.2426C11.9477 15.6332 11.3145 15.6332 10.924 15.2426C10.5335 14.8521 10.5335 14.2189 10.924 13.8284L12.7524 12L6.83333 12C6.28105 12 5.83333 11.5523 5.83333 11C5.83333 10.4477 6.28105 10 6.83333 10L12.7524 10L10.924 8.17159C10.5335 7.78107 10.5335 7.1479 10.924 6.75738Z" fill="white"/>
</svg>
