<svg width="52" height="52" viewBox="0 0 52 52" fill="none" xmlns="http://www.w3.org/2000/svg">
<path fill-rule="evenodd" clip-rule="evenodd" d="M26 2C12.7452 2 2 12.7452 2 26C2 39.2548 12.7452 50 26 50C39.2548 50 50 39.2548 50 26C50 12.7452 39.2548 2 26 2ZM0 26C0 11.6406 11.6406 0 26 0C40.3594 0 52 11.6406 52 26C52 40.3594 40.3594 52 26 52C11.6406 52 0 40.3594 0 26ZM26 14.5833C26.5523 14.5833 27 15.0311 27 15.5833L26.9999 34.0023L34.1316 26.8707C34.5221 26.4801 35.1553 26.4801 35.5458 26.8707C35.9363 27.2612 35.9363 27.8943 35.5458 28.2849L26.707 37.1237C26.5195 37.3112 26.2651 37.4166 25.9999 37.4166C25.7347 37.4166 25.4803 37.3112 25.2928 37.1237L16.454 28.2849C16.0635 27.8943 16.0635 27.2612 16.454 26.8707C16.8445 26.4801 17.4777 26.4801 17.8682 26.8707L24.9999 34.0024L25 15.5833C25 15.031 25.4477 14.5833 26 14.5833Z" fill="white"/>
</svg>
