<svg width="28" height="28" viewBox="0 0 28 28" fill="none" xmlns="http://www.w3.org/2000/svg">
<path fill-rule="evenodd" clip-rule="evenodd" d="M12.9393 0.93934C13.5251 0.353553 14.4749 0.353553 15.0607 0.93934L27.0607 12.9393C27.6464 13.5251 27.6464 14.4749 27.0607 15.0607C26.4749 15.6464 25.5251 15.6464 24.9393 15.0607L14 4.12132L3.06066 15.0607C2.47487 15.6464 1.52513 15.6464 0.93934 15.0607C0.353553 14.4749 0.353553 13.5251 0.93934 12.9393L12.9393 0.93934ZM14 16.1213L3.06066 27.0607C2.47487 27.6464 1.52513 27.6464 0.93934 27.0607C0.353553 26.4749 0.353553 25.5251 0.93934 24.9393L12.9393 12.9393C13.5251 12.3536 14.4749 12.3536 15.0607 12.9393L27.0607 24.9393C27.6464 25.5251 27.6464 26.4749 27.0607 27.0607C26.4749 27.6464 25.5251 27.6464 24.9393 27.0607L14 16.1213Z" fill="white"/>
</svg>
