<svg width="22" height="17" viewBox="0 0 22 17" fill="none" xmlns="http://www.w3.org/2000/svg">
<path fill-rule="evenodd" clip-rule="evenodd" d="M0 1C0 0.447715 0.447715 0 1 0H21C21.5523 0 22 0.447715 22 1V15.1667C22 15.6529 21.8068 16.1192 21.463 16.463C21.1192 16.8068 20.6529 17 20.1667 17H1.83333C1.3471 17 0.880789 16.8068 0.536971 16.463C0.193154 16.1192 0 15.6529 0 15.1667V1ZM3.5708 2L9.84884 7.75487C9.85412 7.75961 9.85936 7.76441 9.86456 7.76928L11 8.8101L12.1384 7.76653C12.1417 7.76352 12.1449 7.76053 12.1482 7.75757L18.4292 2H3.5708ZM20 3.27323L14.2981 8.49997L20 13.7267V3.27323ZM18.4293 15H3.57083L9.18182 9.85657L10.3243 10.9038C10.7066 11.2543 11.2934 11.2543 11.6757 10.9038L12.8182 9.85654L18.4293 15ZM7.70192 8.5L2 3.27324V13.7268L7.70192 8.5Z" fill="white"/>
</svg>
