<svg width="50" height="50" viewBox="0 0 50 50" fill="none" xmlns="http://www.w3.org/2000/svg">
<path d="M43.0201 24.2722C42.0542 22.3747 40.0989 21.135 37.891 21.135C34.9117 21.135 32.4309 23.4091 32.1554 26.375C28.8145 27.8269 27.3124 31.7718 28.7963 35.0734C28.7526 35.1567 28.7166 35.2443 28.6892 35.3356C27.7451 38.4968 24.7827 40.7045 21.4853 40.7045C17.7912 40.7045 14.5945 37.9489 14.0494 34.2948C13.9916 33.9069 13.781 33.5582 13.465 33.3267C10.7037 31.3048 6.75147 31.5981 4.34578 34.1574C3.44923 33.7723 2.45092 33.5616 1.46638 33.5616C0.657421 33.5616 0.00158256 34.2188 0.00158256 35.0294V48.5323C0.00158256 49.3429 0.657421 50 1.46638 50H48.5352C49.3442 50 50 49.3429 50 48.5323C50 46.6175 50 32.7753 50 30.8219C50 26.9958 46.6735 24.074 43.0201 24.2722ZM33.954 28.8601C34.6844 28.6922 35.1705 27.9991 35.0806 27.2537C34.8699 25.5037 36.2436 24.0704 37.8909 24.0704C39.2055 24.0704 40.3378 24.9638 40.6441 26.2429C40.8355 27.0416 41.6453 27.5287 42.4401 27.32C44.7755 26.7068 47.0703 28.5172 47.0703 30.822V33.7138C46.5821 33.8148 46.105 33.9644 45.6538 34.1583C42.9378 31.2808 38.3261 31.2761 35.6046 34.15C34.2791 33.5656 32.8042 33.4152 31.398 33.7081C30.645 31.8099 31.6687 29.3855 33.954 28.8601ZM47.0704 47.0646H2.93118V36.7529C3.2797 36.8764 3.60518 37.0416 3.88447 37.241C4.57175 37.7322 5.53061 37.5402 5.97737 36.8233C7.1497 34.942 9.49767 34.4534 11.2764 35.4069C12.8822 42.7798 21.6496 46.1703 27.7808 41.5268C29.3705 40.3227 30.5989 38.6614 31.2883 36.7986C32.5451 36.2775 34.0054 36.4335 35.1324 37.2402C35.8199 37.7322 36.7794 37.5406 37.2264 36.8233C38.7953 34.3055 42.4524 34.3005 44.0243 36.8232C44.4713 37.5409 45.4304 37.7315 46.1172 37.241C46.3964 37.0415 46.7219 36.8764 47.0705 36.7529C47.0704 38.0225 47.0704 45.2998 47.0704 47.0646Z" fill="black"/>
<path d="M17.4747 23.2594C18.247 23.0981 18.7193 22.392 18.6466 21.6752C18.5593 20.8326 17.7844 20.2145 16.9025 20.3806C16.1111 20.5453 15.6003 21.2942 15.7522 22.1067C15.9165 22.9007 16.6652 23.4113 17.4747 23.2594Z" fill="black"/>
<path d="M23.2772 27.6556C22.9882 26.7644 22.0574 26.4133 21.3153 26.727C20.5391 27.0551 20.2222 27.928 20.5233 28.6439C20.8539 29.427 21.7284 29.7376 22.4365 29.4375C23.1429 29.1381 23.4924 28.3766 23.2772 27.6556Z" fill="black"/>
<path d="M17.3145 34.6312C17.4796 35.4284 18.231 35.9352 19.0372 35.7838C19.864 35.6112 20.3439 34.8171 20.1867 34.0578C20.0291 33.2228 19.1612 32.6854 18.3262 32.9403C17.5358 33.1931 17.1751 33.9643 17.3145 34.6312Z" fill="black"/>
<path d="M11.0279 13.123C11.6122 13.7082 12.5694 13.6958 13.1366 13.0843C14.0365 12.1142 15.5596 12.0832 16.4957 13.0224C17.0684 13.5971 17.9969 13.5955 18.568 13.0232L24.5248 7.0545C25.0969 6.48141 25.0969 5.55205 24.5248 4.97886L19.985 0.429941C19.7104 0.154697 19.3378 0 18.9493 0H1.46638C0.165152 0 -0.490882 1.58239 0.430573 2.50558L11.0279 13.123ZM18.3425 2.93542L21.4175 6.01663L17.3879 10.0542C15.7992 9.1726 13.7923 9.17241 12.1793 10.1255L5.00299 2.93542H18.3425Z" fill="black"/>
</svg>
