<svg width="50" height="50" viewBox="0 0 50 50" fill="none" xmlns="http://www.w3.org/2000/svg">
<path d="M48.5352 0H4.9126C4.10361 0 3.44775 0.655859 3.44775 1.46484C3.44775 2.27383 4.10361 2.92969 4.9126 2.92969H33.6864V16.1311H23.8984C23.0895 16.1311 22.4336 16.7869 22.4336 17.5959C22.4336 18.4049 23.0895 19.0607 23.8984 19.0607H33.6864V30.0191C33.3679 30.089 33.0561 30.2035 32.7608 30.366C31.8313 30.8776 30.7755 31.148 29.707 31.148C28.6388 31.148 27.5826 30.8775 26.6532 30.366C25.6179 29.796 24.3818 29.7962 23.3468 30.366C21.4917 31.4044 19.0942 31.4044 17.2392 30.366C16.2038 29.796 14.9678 29.7962 13.9327 30.366C13.0032 30.8776 11.9474 31.148 10.8789 31.148C9.81065 31.148 8.75449 30.8775 7.8251 30.366C6.78975 29.7961 5.55371 29.7962 4.51865 30.366C3.58916 30.8775 2.5332 31.148 1.46484 31.148C0.655859 31.148 0 31.8039 0 32.6129V48.5352C0 49.3441 0.655859 50 1.46484 50H48.5352C49.3441 50 50 49.3441 50 48.5352V1.46484C50 0.655859 49.3441 0 48.5352 0ZM43.13 22.2954H47.0703V25.8352H43.13V22.2954ZM43.13 19.3657V15.826H47.0703V19.3657H43.13ZM43.13 12.8964V9.35664H47.0703V12.8964H43.13ZM43.13 28.7648H47.0703V30.9762C46.516 30.845 45.9804 30.6406 45.4813 30.366C44.7505 29.9637 43.9197 29.8467 43.13 30.0125V28.7648ZM47.0703 6.42695H43.13V2.92969H47.0703V6.42695ZM40.2003 2.92969V31.0549C38.9996 31.2657 37.7311 31.1145 36.616 30.6336V2.92969H40.2003ZM5.93145 32.9325C6.08193 32.8497 6.26172 32.8496 6.4123 32.9325C9.12988 34.4531 12.628 34.4531 15.3455 32.9325C15.496 32.8497 15.6759 32.8497 15.8264 32.9325C17.1875 33.6817 18.732 34.0777 20.293 34.0777C21.8539 34.0777 23.3985 33.6817 24.7597 32.9324C24.9102 32.8496 25.0899 32.8496 25.2404 32.9324C27.9578 34.453 31.4563 34.453 34.1736 32.9324C34.3242 32.8496 34.5038 32.8495 34.6546 32.9324C37.3717 34.453 40.8705 34.453 43.5878 32.9324C43.7383 32.8496 43.9182 32.8496 44.0687 32.9324C45.0011 33.4457 46.0195 33.7932 47.0704 33.9611V39.2657C46.5161 39.1346 45.9804 38.9302 45.4814 38.6555C44.4462 38.0857 43.2103 38.0857 42.1751 38.6555C41.2456 39.1671 40.1895 39.4375 39.1213 39.4375C38.0529 39.4375 36.997 39.1671 36.0675 38.6554C35.0323 38.0856 33.7964 38.0857 32.7611 38.6554C30.906 39.6938 28.5087 39.6937 26.6535 38.6554C25.6183 38.0855 24.3823 38.0855 23.3472 38.6554C21.492 39.6937 19.0946 39.6937 17.2395 38.6554C16.2043 38.0855 14.9684 38.0855 13.9331 38.6554C13.0036 39.167 11.9478 39.4374 10.8793 39.4374C9.81104 39.4374 8.75488 39.1669 7.82539 38.6553C6.79033 38.0856 5.5543 38.0854 4.51914 38.6553C4.02012 38.93 3.48447 39.1344 2.93018 39.2655V33.9609C3.98066 33.7932 4.99902 33.4457 5.93145 32.9325ZM2.92969 47.0703V42.2506C3.98057 42.0826 4.99912 41.7353 5.93145 41.2221C6.08193 41.1392 6.26182 41.1393 6.4123 41.2221C9.12979 42.7427 12.6281 42.7427 15.3454 41.2221C15.4961 41.1393 15.6759 41.1393 15.8264 41.2221C18.5439 42.7427 22.0421 42.7427 24.7597 41.2221C24.9102 41.1393 25.09 41.1393 25.2405 41.2221C27.9578 42.7427 31.4564 42.7427 34.1736 41.2221C34.3243 41.1394 34.5042 41.1392 34.6547 41.2221C37.3717 42.7427 40.8706 42.7427 43.5878 41.2221C43.7385 41.1393 43.9183 41.1393 44.0688 41.2221C45.0012 41.7353 46.0196 42.0826 47.0705 42.2506V47.0703H2.92969Z" fill="black"/>
</svg>
