<svg width="50" height="44" viewBox="0 0 50 44" fill="none" xmlns="http://www.w3.org/2000/svg">
<path d="M46.3867 10.262H43.4536V8.79511H43.7469C44.5557 8.79511 45.2118 8.13846 45.2118 7.32824C45.2118 6.51802 44.5557 5.86137 43.7469 5.86137H42.0177C40.0196 2.26868 36.2316 0 32.0873 0H17.9127C13.7581 0 9.9781 2.26601 7.98111 5.86137H6.25305C5.44434 5.86137 4.78821 6.51802 4.78821 7.32824C4.78821 8.13846 5.44434 8.79511 6.25305 8.79511H6.5464V10.262H3.61328C1.62086 10.262 0 11.8851 0 13.8803V35.9811C0 37.9763 1.62086 39.5994 3.61328 39.5994H6.5464V42.5331C6.5464 43.3433 7.20215 44 8.01125 44H41.9888C42.7979 44 43.4536 43.3433 43.4536 42.5331V39.5994H46.3867C48.3791 39.5994 50 37.9763 50 35.9811V13.8803C50 11.8851 48.3791 10.262 46.3867 10.262ZM17.9127 2.93374H32.0873C34.5699 2.93374 36.8809 4.03313 38.4613 5.86137H11.5372C13.1153 4.03198 15.4232 2.93374 17.9127 2.93374ZM34.6714 23.4638H31.6437V20.5301H34.6714V23.4638ZM31.6437 26.3976H34.6714V29.3313H31.6437V26.3976ZM34.6714 17.5963H31.6437V14.6626H34.6714V17.5963ZM31.6437 32.265H34.6714V35.1988H31.6437V32.265ZM34.6714 11.7289H31.6437V8.79511H34.6714V11.7289ZM3.61328 36.6656C3.23639 36.6656 2.92969 36.3585 2.92969 35.9811V13.8803C2.92969 13.5028 3.23639 13.1957 3.61328 13.1957H6.5464V36.6656H3.61328ZM9.47609 8.81306C9.48753 8.80695 9.49936 8.8016 9.5108 8.79511H28.714V41.0663H9.47609V8.81306ZM31.6437 41.0663V38.1325H34.6714V41.0663H31.6437ZM40.5239 41.0663H37.6011V8.79511H40.5239V41.0663ZM47.0703 35.9811C47.0703 36.3585 46.7636 36.6656 46.3867 36.6656H43.4536V13.1957H46.3867C46.7636 13.1957 47.0703 13.5028 47.0703 13.8803V35.9811Z" fill="black"/>
</svg>
