<svg width="50" height="50" viewBox="0 0 50 50" fill="none" xmlns="http://www.w3.org/2000/svg">
<path d="M48.5294 0C47.7173 0 47.0588 0.655859 47.0588 1.46484V7.02666C45.6573 7.21553 44.7626 7.66055 43.9512 8.06484C43.0296 8.52402 42.3016 8.88672 40.6886 8.88672C39.0751 8.88672 38.3468 8.52402 37.4248 8.06484C36.3602 7.53457 35.1535 6.93359 32.8456 6.93359C30.5371 6.93359 29.3302 7.53447 28.2653 8.06475C27.3428 8.52393 26.6143 8.88672 25 8.88672C23.3857 8.88672 22.6572 8.52393 21.7346 8.06475C20.6698 7.53447 19.4628 6.93359 17.1544 6.93359C14.8465 6.93359 13.6398 7.53457 12.5753 8.06484C11.6532 8.52402 10.925 8.88672 9.31147 8.88672C7.69853 8.88672 6.97049 8.52402 6.04892 8.06484C5.23735 7.66055 4.34275 7.21553 2.94118 7.02666V1.46484C2.94118 0.655859 2.28275 0 1.47059 0C0.658431 0 0 0.655859 0 1.46484V48.5352C0 49.3441 0.658431 50 1.47059 50H48.5294C49.3416 50 50 49.3441 50 48.5352V1.46484C50 0.655859 49.3416 0 48.5294 0ZM4.73314 10.6852C5.79755 11.2154 7.00392 11.8164 9.31147 11.8164C11.6194 11.8164 12.8261 11.2154 13.8906 10.6852C14.8125 10.226 15.5409 9.86328 17.1544 9.86328C18.7687 9.86328 19.4973 10.2261 20.4198 10.6853C21.4846 11.2155 22.6915 11.8164 25 11.8164C27.3085 11.8164 28.5154 11.2155 29.5803 10.6853C30.5027 10.2261 31.2314 9.86328 32.8457 9.86328C34.4592 9.86328 35.1875 10.226 36.1095 10.6852C37.174 11.2154 38.3807 11.8164 40.6886 11.8164C42.9961 11.8164 44.2025 11.2154 45.2669 10.6852C45.8503 10.3944 46.3569 10.1428 47.0588 9.99697V47.0703H2.94118V9.99697C3.64314 10.1428 4.14971 10.3944 4.73314 10.6852Z" fill="black"/>
<path d="M22.1182 37.6361C21.544 37.0642 20.6128 37.0642 20.0385 37.6361C19.4642 38.2081 19.4642 39.1356 20.0385 39.7077L23.9601 43.614C24.2473 43.8999 24.6236 44.043 25 44.043C25.3764 44.043 25.7527 43.8999 26.0398 43.6139L29.9614 39.7076C30.5357 39.1356 30.5357 38.2081 29.9614 37.636C29.3872 37.0641 28.456 37.0641 27.8817 37.636L26.4706 39.0417V19.7474L27.8818 21.153C28.1688 21.439 28.5452 21.582 28.9216 21.582C29.2979 21.582 29.6743 21.439 29.9614 21.1529C30.5357 20.581 30.5357 19.6534 29.9614 19.0813L26.0398 15.1751C25.4656 14.6031 24.5344 14.6031 23.9601 15.1751L20.0385 19.0813C19.4642 19.6533 19.4642 20.5809 20.0385 21.1529C20.6127 21.7249 21.5439 21.7249 22.1182 21.1529L23.5294 19.7474V39.0417L22.1182 37.6361Z" fill="black"/>
</svg>
