<svg width="50" height="42" viewBox="0 0 50 42" fill="none" xmlns="http://www.w3.org/2000/svg">
<path d="M48.5352 12.2294H37.3997L26.0023 0.446233C25.7265 0.161047 25.3471 0 24.9507 0H1.46484C0.655859 0 0 0.657504 0 1.46852V40.5315C0 41.3425 0.655859 42 1.46484 42H48.5352C49.3441 42 50 41.3425 50 40.5315V13.6979C50 12.8869 49.3441 12.2294 48.5352 12.2294ZM2.92969 11.4379H18.5053L30.8865 23.262C31.1589 23.5221 31.5207 23.6673 31.8969 23.6673H47.0703V32.5431H2.92969V11.4379ZM6.1915 2.93704V4.36081C6.1915 5.17183 6.84736 5.82933 7.65635 5.82933C8.46533 5.82933 9.12119 5.17183 9.12119 4.36081V2.93704H17.6437V4.23158C17.6437 5.0426 18.2995 5.7001 19.1085 5.7001C19.9175 5.7001 20.5733 5.0426 20.5733 4.23158V2.93704H24.3307L27.6432 6.36162V10.0804C27.6432 10.8914 28.299 11.5489 29.108 11.5489C29.917 11.5489 30.5729 10.8914 30.5729 10.0804V9.39049L35.7281 14.7202C36.004 15.0054 36.3834 15.1665 36.7798 15.1665H41.4082V15.9863C41.4082 16.7973 42.0641 17.4548 42.873 17.4548C43.682 17.4548 44.3379 16.7973 44.3379 15.9863V15.1665H47.0703V20.7303H39.3346V19.6171C39.3346 18.8061 38.6787 18.1486 37.8697 18.1486C37.0607 18.1486 36.4049 18.8061 36.4049 19.6171V20.7303H32.4829L31.0611 19.3725V17.1851C31.0611 16.3741 30.4053 15.7166 29.5963 15.7166C28.9698 15.7166 28.4366 16.1116 28.2273 16.6661L24.4569 13.0653C24.4573 13.0522 24.4589 13.0395 24.4589 13.0262V9.88851C24.4589 9.0775 23.803 8.41999 22.994 8.41999C22.1851 8.41999 21.5292 9.0775 21.5292 9.88851V10.2692L20.1018 8.90597C19.8293 8.64585 19.4676 8.50066 19.0914 8.50066H14.8548V7.20425C14.8548 6.39324 14.1989 5.73574 13.3899 5.73574C12.581 5.73574 11.9251 6.39324 11.9251 7.20425V8.50066H2.92969V2.93704H6.1915ZM47.0703 39.063H2.92969V35.4802H47.0703V39.063Z" fill="black"/>
<path d="M6.40967 13.6105C5.60068 13.6105 4.94482 14.268 4.94482 15.079V16.0159C4.94482 16.8269 5.60068 17.4844 6.40967 17.4844C7.21865 17.4844 7.87451 16.8269 7.87451 16.0159V15.079C7.87451 14.2679 7.21865 13.6105 6.40967 13.6105Z" fill="black"/>
<path d="M12.286 22.6481C11.4771 22.6481 10.8212 23.3056 10.8212 24.1166V25.0535C10.8212 25.8645 11.4771 26.522 12.286 26.522C13.095 26.522 13.7509 25.8645 13.7509 25.0535V24.1166C13.7509 23.3056 13.095 22.6481 12.286 22.6481Z" fill="black"/>
<path d="M19.1085 16.5222C18.2995 16.5222 17.6437 17.1797 17.6437 17.9907V18.9275C17.6437 19.7385 18.2995 20.396 19.1085 20.396C19.9175 20.396 20.5733 19.7385 20.5733 18.9275V17.9907C20.5733 17.1797 19.9175 16.5222 19.1085 16.5222Z" fill="black"/>
<path d="M25 25.2859C24.191 25.2859 23.5352 25.9434 23.5352 26.7544V27.6913C23.5352 28.5023 24.191 29.1598 25 29.1598C25.809 29.1598 26.4648 28.5023 26.4648 27.6913V26.7544C26.4648 25.9434 25.809 25.2859 25 25.2859Z" fill="black"/>
</svg>
