<svg width="140" height="140" viewBox="0 0 140 140" fill="none" xmlns="http://www.w3.org/2000/svg">
<g filter="url(#filter0_d)">
<path d="M105.352 92.4219H102.422V82.5998C102.422 79.0998 103.336 75.3791 105.215 71.2256C105.954 69.5938 106.328 67.8539 106.328 66.0547C106.328 60.0629 102.154 55.0309 96.5625 53.7043V24.6484C96.5625 16.5713 89.9912 10 81.9141 10H22.9297C21.3117 10 20 11.3117 20 12.9297V107.07C20 108.688 21.3117 110 22.9297 110H117.07C118.688 110 120 108.688 120 107.07C120 98.9932 113.429 92.4219 105.352 92.4219ZM93.6328 59.2188C97.4021 59.2188 100.469 62.2854 100.469 66.0547C100.469 67.0152 100.27 67.9422 99.877 68.81C97.9688 73.0266 96.9023 76.9367 96.6334 80.7031H90.6324C90.3633 76.9367 89.2969 73.0264 87.3887 68.81C86.9961 67.9422 86.7969 67.015 86.7969 66.0547C86.7969 62.2854 89.8635 59.2188 93.6328 59.2188ZM96.5625 86.5625V92.4219H90.7031V86.5625H96.5625ZM84.8438 16.3633C87.3367 17.2475 89.315 19.2258 90.1992 21.7188H84.8438V16.3633ZM67.5604 104.141H25.8594V15.8594H78.9844V24.6484C78.9844 26.2664 80.2961 27.5781 81.9141 27.5781H90.7031V53.7043C85.1111 55.0309 80.9375 60.0629 80.9375 66.0547C80.9375 67.8539 81.3119 69.5936 82.0504 71.2258C83.9301 75.3791 84.8438 79.0998 84.8438 82.5998V92.4219H81.9141C74.84 92.4219 68.9215 97.4625 67.5604 104.141ZM73.627 104.141C74.8361 100.73 78.0945 98.2812 81.9141 98.2812H105.352C109.171 98.2812 112.429 100.73 113.639 104.141H73.627Z" fill="url(#paint0_linear)"/>
<path d="M34.6484 39.4922H81.9141C83.532 39.4922 84.8438 38.1805 84.8438 36.5625C84.8438 34.9445 83.532 33.6328 81.9141 33.6328H34.6484C33.0305 33.6328 31.7188 34.9445 31.7188 36.5625C31.7188 38.1805 33.0305 39.4922 34.6484 39.4922Z" fill="url(#paint1_linear)"/>
<path d="M34.6484 51.2109H81.9141C83.532 51.2109 84.8438 49.8992 84.8438 48.2812C84.8438 46.6633 83.532 45.3516 81.9141 45.3516H34.6484C33.0305 45.3516 31.7188 46.6633 31.7188 48.2812C31.7188 49.8992 33.0305 51.2109 34.6484 51.2109Z" fill="url(#paint2_linear)"/>
<path d="M74.1016 57.0703H34.6484C33.0305 57.0703 31.7188 58.382 31.7188 60C31.7188 61.618 33.0305 62.9297 34.6484 62.9297H74.1016C75.7195 62.9297 77.0312 61.618 77.0312 60C77.0312 58.382 75.7195 57.0703 74.1016 57.0703Z" fill="url(#paint3_linear)"/>
<path d="M46.3672 68.7891C38.29 68.7891 31.7188 75.3604 31.7188 83.4375C31.7188 91.5146 38.29 98.0859 46.3672 98.0859C54.4443 98.0859 61.0156 91.5146 61.0156 83.4375C61.0156 75.3604 54.4443 68.7891 46.3672 68.7891ZM46.3672 92.2266C41.5209 92.2266 37.5781 88.2838 37.5781 83.4375C37.5781 78.5912 41.5209 74.6484 46.3672 74.6484C51.2135 74.6484 55.1562 78.5912 55.1562 83.4375C55.1562 88.2838 51.2135 92.2266 46.3672 92.2266Z" fill="url(#paint4_linear)"/>
<path d="M46.3672 86.3672C47.9852 86.3672 49.2969 85.0555 49.2969 83.4375C49.2969 81.8195 47.9852 80.5078 46.3672 80.5078C44.7492 80.5078 43.4375 81.8195 43.4375 83.4375C43.4375 85.0555 44.7492 86.3672 46.3672 86.3672Z" fill="url(#paint5_linear)"/>
</g>
<defs>
<filter id="filter0_d" x="0" y="0" width="140" height="140" filterUnits="userSpaceOnUse" color-interpolation-filters="sRGB">
<feFlood flood-opacity="0" result="BackgroundImageFix"/>
<feColorMatrix in="SourceAlpha" type="matrix" values="0 0 0 0 0 0 0 0 0 0 0 0 0 0 0 0 0 0 127 0"/>
<feOffset dy="10"/>
<feGaussianBlur stdDeviation="10"/>
<feColorMatrix type="matrix" values="0 0 0 0 1 0 0 0 0 0.572687 0 0 0 0 0 0 0 0 0.2 0"/>
<feBlend mode="normal" in2="BackgroundImageFix" result="effect1_dropShadow"/>
<feBlend mode="normal" in="SourceGraphic" in2="effect1_dropShadow" result="shape"/>
</filter>
<linearGradient id="paint0_linear" x1="82.2407" y1="10" x2="82.2407" y2="110" gradientUnits="userSpaceOnUse">
<stop stop-color="#F8A032"/>
<stop offset="1" stop-color="#F85B2E"/>
</linearGradient>
<linearGradient id="paint1_linear" x1="82.2407" y1="10" x2="82.2407" y2="110" gradientUnits="userSpaceOnUse">
<stop stop-color="#F8A032"/>
<stop offset="1" stop-color="#F85B2E"/>
</linearGradient>
<linearGradient id="paint2_linear" x1="82.2407" y1="10" x2="82.2407" y2="110" gradientUnits="userSpaceOnUse">
<stop stop-color="#F8A032"/>
<stop offset="1" stop-color="#F85B2E"/>
</linearGradient>
<linearGradient id="paint3_linear" x1="82.2407" y1="10" x2="82.2407" y2="110" gradientUnits="userSpaceOnUse">
<stop stop-color="#F8A032"/>
<stop offset="1" stop-color="#F85B2E"/>
</linearGradient>
<linearGradient id="paint4_linear" x1="82.2407" y1="10" x2="82.2407" y2="110" gradientUnits="userSpaceOnUse">
<stop stop-color="#F8A032"/>
<stop offset="1" stop-color="#F85B2E"/>
</linearGradient>
<linearGradient id="paint5_linear" x1="82.2407" y1="10" x2="82.2407" y2="110" gradientUnits="userSpaceOnUse">
<stop stop-color="#F8A032"/>
<stop offset="1" stop-color="#F85B2E"/>
</linearGradient>
</defs>
</svg>
