<svg width="140" height="140" viewBox="0 0 140 140" fill="none" xmlns="http://www.w3.org/2000/svg">
<g filter="url(#filter0_d)">
<path d="M117.07 86.5625C115.879 86.5625 114.788 86.6199 113.782 86.7223C113.47 82.6787 108.572 19.1646 108.074 12.7045C107.956 11.1783 106.684 10 105.153 10H87.5781C85.9602 10 84.6484 11.3117 84.6484 12.9297V21.7188H55.3516V12.9297C55.3516 11.3117 54.0398 10 52.4219 10H34.8471C33.3164 10 32.0437 11.1783 31.926 12.7043C31.7111 15.4895 26.5031 83.0158 26.2172 86.7223C25.2117 86.6197 24.1221 86.5623 22.9299 86.5621C22.1529 86.5621 21.4078 86.8707 20.8584 87.4201C20.309 87.9695 20 88.715 20 89.492V107.07C20 108.688 21.3117 110 22.9297 110H117.07C118.688 110 120 108.688 120 107.07V89.4922C120 87.8742 118.688 86.5625 117.07 86.5625ZM90.5078 15.8594H102.441L102.892 21.7188H90.5078V15.8594ZM37.5594 15.8594H49.4922V21.7188H37.1074L37.5594 15.8594ZM36.6557 27.5781C42.0998 27.5781 101.377 27.5781 103.344 27.5781L103.796 33.4375H36.2037L36.6557 27.5781ZM35.7518 39.2969H104.248L108.004 88.0004C106.451 88.5525 105.137 89.1969 103.889 89.8086C103.331 90.0822 102.783 90.3498 102.227 90.6039V53.9453C102.227 49.099 98.2838 45.1562 93.4375 45.1562C88.5912 45.1562 84.6484 49.099 84.6484 53.9453V90.592C84.1078 90.3406 83.5756 90.0748 83.0289 89.8016C81.7541 89.1643 80.4068 88.4914 78.7891 87.925V53.9453C78.7891 49.099 74.8463 45.1562 70 45.1562C65.1537 45.1562 61.2109 49.099 61.2109 53.9453V87.925C59.5932 88.4914 58.2459 89.1641 56.9711 89.8016C56.4244 90.0748 55.8922 90.3408 55.3516 90.592V53.9453C55.3516 49.099 51.4088 45.1562 46.5625 45.1562C41.7162 45.1562 37.7734 49.099 37.7734 53.9453V90.6238C37.1941 90.3605 36.6246 90.0809 36.0391 89.7928C34.8121 89.1895 33.5193 88.5543 31.9949 88.008L35.7518 39.2969ZM96.3672 53.9453V92.2678C95.4539 92.3709 94.4818 92.4219 93.4375 92.4219C92.3486 92.4219 91.3826 92.3674 90.5078 92.2691V53.9453C90.5078 52.3299 91.8221 51.0156 93.4375 51.0156C95.0529 51.0156 96.3672 52.3299 96.3672 53.9453ZM72.9297 53.9453V86.6885C72.0258 86.6074 71.0535 86.5625 70 86.5625C68.9465 86.5625 67.9742 86.6074 67.0703 86.6885V53.9453C67.0703 52.3299 68.3846 51.0156 70 51.0156C71.6154 51.0156 72.9297 52.3299 72.9297 53.9453ZM49.4922 53.9453V92.2691C48.6174 92.3674 47.6514 92.4219 46.5625 92.4219C45.4762 92.4219 44.51 92.3676 43.6328 92.2699V53.9453C43.6328 52.3299 44.9471 51.0156 46.5625 51.0156C48.1779 51.0156 49.4922 52.3299 49.4922 53.9453ZM114.141 104.141H25.8594V92.573C29.1637 92.9412 31.1861 93.9359 33.4529 95.0508C36.532 96.565 40.0217 98.2812 46.5625 98.2812C53.1135 98.2812 56.5551 96.5605 59.5914 95.0424C62.4035 93.6361 64.8322 92.4219 70 92.4219C75.1678 92.4219 77.5965 93.6361 80.4086 95.0424C83.4449 96.5605 86.8865 98.2812 93.4375 98.2812C98.8178 98.2812 101.99 97.2656 106.469 95.0693C108.762 93.9449 110.808 92.9418 114.141 92.5725V104.141Z" fill="url(#paint0_linear)"/>
</g>
<defs>
<filter id="filter0_d" x="0" y="0" width="140" height="140" filterUnits="userSpaceOnUse" color-interpolation-filters="sRGB">
<feFlood flood-opacity="0" result="BackgroundImageFix"/>
<feColorMatrix in="SourceAlpha" type="matrix" values="0 0 0 0 0 0 0 0 0 0 0 0 0 0 0 0 0 0 127 0"/>
<feOffset dy="10"/>
<feGaussianBlur stdDeviation="10"/>
<feColorMatrix type="matrix" values="0 0 0 0 1 0 0 0 0 0.572687 0 0 0 0 0 0 0 0 0.2 0"/>
<feBlend mode="normal" in2="BackgroundImageFix" result="effect1_dropShadow"/>
<feBlend mode="normal" in="SourceGraphic" in2="effect1_dropShadow" result="shape"/>
</filter>
<linearGradient id="paint0_linear" x1="82.2407" y1="10" x2="82.2407" y2="110" gradientUnits="userSpaceOnUse">
<stop stop-color="#F8A032"/>
<stop offset="1" stop-color="#F85B2E"/>
</linearGradient>
</defs>
</svg>
