<svg width="131" height="140" viewBox="0 0 131 140" fill="none" xmlns="http://www.w3.org/2000/svg">
<g filter="url(#filter0_d)">
<path d="M110.234 55.1172C110.234 30.1826 90.0547 10 65.1172 10C40.1826 10 20 30.1797 20 55.1172C20 80.0363 40.207 100.22 65.0611 100.234C68.5842 106.081 74.9951 110 82.3047 110C93.3973 110 102.422 100.975 102.422 89.8828C102.422 87.2627 101.918 84.7582 101.003 82.4605C106.968 74.6344 110.234 64.9969 110.234 55.1172ZM87.6744 70.4943C88.8896 66.4768 89.6131 62.3104 89.8408 58.0469H104.263C103.754 64.8152 101.492 71.3523 97.723 76.9766C95.14 73.8957 91.6533 71.5979 87.6744 70.4943ZM62.1971 90.4783C59.6414 88.2027 57.3615 85.7141 55.3814 83.0469H63.384C62.5352 85.3895 62.1211 87.8959 62.1971 90.4783ZM66.7115 77.1875H51.6637C48.5184 71.3191 46.6527 64.8344 46.2342 58.0469H83.9727C83.7311 62.0773 82.9912 66.0047 81.7592 69.7732C75.6975 69.9354 70.2963 72.7928 66.7115 77.1875ZM32.6332 77.1875C28.7672 71.5309 26.4715 64.9799 25.9666 58.0469H40.3641C40.7311 64.7693 42.3549 71.2297 45.1086 77.1875H32.6332ZM32.6676 33.0469H45.0561C42.3299 39.0703 40.7312 45.5971 40.365 52.1875H25.9686C26.492 45.1275 28.891 38.5818 32.6676 33.0469ZM89.8441 52.1875C89.4936 45.4906 87.9354 39.0766 85.1951 33.0469H97.5668C101.343 38.5818 103.742 45.1275 104.266 52.1875H89.8441ZM78.6853 33.0469C81.7502 38.91 83.568 45.391 83.9738 52.1875H46.2305C46.6363 45.3936 48.4584 38.9121 51.5309 33.0469H78.6853ZM55.1668 27.1875C57.915 23.4021 61.248 19.9705 65.117 17.002C68.982 19.9686 72.3115 23.4004 75.0563 27.1875H55.1668ZM82.0801 27.1875C79.777 23.4412 76.9908 19.9574 73.8152 16.832C81.0652 18.4783 87.5584 22.1371 92.6762 27.1875H82.0801ZM48.1643 27.1875H37.5582C42.6689 22.1439 49.1516 18.4879 56.3898 16.8385C53.2201 19.9512 50.4715 23.4084 48.1643 27.1875ZM37.5338 83.0469H48.2814C50.6488 86.8256 53.5131 90.3369 56.8342 93.5078C49.6814 91.9818 43.0176 88.4584 37.5338 83.0469ZM82.3047 104.141C74.443 104.141 68.0469 97.7445 68.0469 89.8828C68.0469 82.0211 74.443 75.625 82.3047 75.625C90.1664 75.625 96.5625 82.0211 96.5625 89.8828C96.5625 97.7445 90.1664 104.141 82.3047 104.141Z" fill="url(#paint0_linear)"/>
<path d="M85.4297 86.9531H82.932L83.5844 84.3434C83.977 82.7738 83.0225 81.183 81.4527 80.7908C79.8846 80.3992 78.2924 81.3525 77.9002 82.9225L76.3377 89.1725C75.8746 91.0223 77.2771 92.8125 79.1797 92.8125H81.6773L81.025 95.4223C80.6324 96.9918 81.5869 98.5826 83.1566 98.9748C84.7326 99.3695 86.3187 98.4057 86.7092 96.8432L88.2717 90.5932C88.7348 88.7434 87.3322 86.9531 85.4297 86.9531Z" fill="url(#paint1_linear)"/>
</g>
<defs>
<filter id="filter0_d" x="0" y="0" width="130.234" height="140" filterUnits="userSpaceOnUse" color-interpolation-filters="sRGB">
<feFlood flood-opacity="0" result="BackgroundImageFix"/>
<feColorMatrix in="SourceAlpha" type="matrix" values="0 0 0 0 0 0 0 0 0 0 0 0 0 0 0 0 0 0 127 0"/>
<feOffset dy="10"/>
<feGaussianBlur stdDeviation="10"/>
<feColorMatrix type="matrix" values="0 0 0 0 1 0 0 0 0 0.572687 0 0 0 0 0 0 0 0 0.2 0"/>
<feBlend mode="normal" in2="BackgroundImageFix" result="effect1_dropShadow"/>
<feBlend mode="normal" in="SourceGraphic" in2="effect1_dropShadow" result="shape"/>
</filter>
<linearGradient id="paint0_linear" x1="76.1625" y1="10" x2="76.1625" y2="110" gradientUnits="userSpaceOnUse">
<stop stop-color="#F8A032"/>
<stop offset="1" stop-color="#F85B2E"/>
</linearGradient>
<linearGradient id="paint1_linear" x1="76.1625" y1="10" x2="76.1625" y2="110" gradientUnits="userSpaceOnUse">
<stop stop-color="#F8A032"/>
<stop offset="1" stop-color="#F85B2E"/>
</linearGradient>
</defs>
</svg>
