<svg width="118" height="140" viewBox="0 0 118 140" fill="none" xmlns="http://www.w3.org/2000/svg">
<g filter="url(#filter0_d)">
<path d="M59 10C37.4954 10 20 27.685 20 49.423C20 62.9705 26.7958 74.943 37.1219 82.0424V107.115C37.1219 108.094 37.6129 109.006 38.4261 109.537C39.239 110.069 40.2634 110.147 41.1466 109.746L59 101.625L76.8534 109.746C77.2273 109.916 77.6263 110 78.0241 110C78.5659 110 79.105 109.844 79.5739 109.538C80.387 109.006 80.8781 108.094 80.8781 107.115V82.0426C91.2042 74.9432 98 62.9707 98 49.4232C98 27.685 80.5046 10 59 10ZM75.1707 102.654L60.1709 95.8312C59.7986 95.6617 59.3992 95.577 59 95.577C58.6008 95.577 58.2014 95.6615 57.8291 95.8311L42.8293 102.654V85.3035C44.2636 85.9644 45.7357 86.5324 47.2356 87.0115C47.3206 87.0389 47.4055 87.0668 47.4909 87.0934C47.6823 87.1529 47.8744 87.2104 48.0666 87.2668C48.209 87.309 48.3514 87.3508 48.4942 87.3914C48.6494 87.4352 48.8051 87.4775 48.9609 87.5193C49.1425 87.5684 49.3245 87.6162 49.5071 87.6627C49.6361 87.6953 49.7654 87.7273 49.8949 87.7584C50.1049 87.8094 50.3155 87.8586 50.5269 87.9061C50.6364 87.9307 50.7462 87.9551 50.8559 87.9787C51.0874 88.0287 51.3196 88.076 51.5529 88.1219C51.6477 88.1404 51.7426 88.1594 51.8377 88.1773C52.0846 88.2238 52.3325 88.2674 52.581 88.3092C52.6662 88.3236 52.7514 88.3385 52.8368 88.3521C53.0932 88.3936 53.3507 88.4316 53.6091 88.4678C53.6891 88.4789 53.7689 88.491 53.8488 88.5018C54.1103 88.5367 54.3728 88.5682 54.6356 88.5978C54.7141 88.6066 54.7921 88.6166 54.8706 88.6252C55.1328 88.6533 55.3959 88.6773 55.6597 88.7C55.7397 88.7068 55.8193 88.7152 55.8995 88.7215C56.1593 88.7422 56.4204 88.7588 56.6818 88.7744C56.7656 88.7795 56.8491 88.7861 56.9334 88.7906C57.1975 88.8047 57.4626 88.8143 57.7281 88.8229C57.808 88.8256 57.8875 88.8299 57.9675 88.832C58.3106 88.841 58.6549 88.8461 59.0004 88.8461C59.3457 88.8461 59.69 88.841 60.0331 88.832C60.1131 88.8299 60.1925 88.8256 60.2725 88.8229C60.538 88.8143 60.8031 88.8045 61.0672 88.7906C61.1511 88.7861 61.2347 88.7795 61.3188 88.7744C61.5802 88.7588 61.8412 88.7424 62.1011 88.7215C62.1813 88.7152 62.2609 88.7068 62.3409 88.7C62.6046 88.6773 62.8678 88.6531 63.13 88.6252C63.2085 88.6168 63.2865 88.6068 63.365 88.5978C63.6279 88.568 63.8903 88.5367 64.1517 88.5018C64.2319 88.491 64.3115 88.4791 64.3915 88.4678C64.6497 88.4316 64.9072 88.3936 65.1638 88.3521C65.2492 88.3383 65.3342 88.3234 65.4196 88.3092C65.6681 88.2674 65.916 88.2238 66.1629 88.1773C66.258 88.1594 66.3529 88.1406 66.4477 88.1219C66.6807 88.0762 66.913 88.0285 67.1447 87.9787C67.2546 87.9551 67.3642 87.9307 67.4737 87.9061C67.6851 87.8586 67.8957 87.8094 68.1057 87.7584C68.235 87.7271 68.3642 87.6951 68.4935 87.6627C68.6761 87.6164 68.8579 87.5686 69.0397 87.5193C69.1955 87.4773 69.3512 87.4353 69.5063 87.3914C69.6491 87.3508 69.7917 87.309 69.9339 87.2668C70.1262 87.2102 70.3184 87.1529 70.5097 87.0934C70.5951 87.0666 70.6799 87.0387 70.765 87.0115C72.2649 86.5324 73.737 85.9646 75.1713 85.3037V102.654H75.1707ZM69.8644 81.2352C69.7506 81.2748 69.6368 81.3147 69.5226 81.3531C69.3491 81.4117 69.1748 81.4693 68.9999 81.525C68.7965 81.5897 68.5924 81.652 68.3878 81.7125C68.2435 81.7555 68.099 81.7982 67.9539 81.8393C67.6832 81.9156 67.4115 81.9887 67.1389 82.058C67.0372 82.084 66.9352 82.1086 66.8334 82.1336C66.5666 82.1988 66.2986 82.2609 66.03 82.3195C65.9624 82.3344 65.8953 82.35 65.8277 82.3641C65.4811 82.4373 65.1333 82.5055 64.7841 82.5674C64.7486 82.5736 64.7128 82.5791 64.6771 82.5855C64.3625 82.6404 64.047 82.6902 63.7309 82.7357C63.6596 82.7461 63.5883 82.7562 63.5166 82.7662C63.1795 82.8125 62.8417 82.8551 62.5028 82.891C62.4901 82.8924 62.4773 82.8941 62.4646 82.8955C62.1098 82.9328 61.7537 82.9635 61.3972 82.9891C61.32 82.9947 61.2423 82.9988 61.1648 83.0041C60.8875 83.0223 60.6103 83.0365 60.3322 83.0479C60.2377 83.0518 60.1433 83.0557 60.0488 83.0588C59.6996 83.0695 59.3501 83.077 59 83.077C58.6499 83.077 58.3004 83.0697 57.9512 83.0584C57.8565 83.0555 57.7621 83.0514 57.6678 83.0475C57.3897 83.0363 57.1125 83.0219 56.8352 83.0037C56.7577 82.9986 56.6802 82.9943 56.6028 82.9887C56.2463 82.9629 55.8904 82.9322 55.5354 82.8951C55.5227 82.8937 55.5099 82.892 55.4972 82.8906C55.1583 82.8547 54.8205 82.8121 54.4834 82.7658C54.4121 82.7561 54.3408 82.7459 54.2693 82.7354C53.953 82.6897 53.6375 82.64 53.3229 82.5852C53.2874 82.5791 53.2516 82.5734 53.2159 82.567C52.8667 82.5051 52.5187 82.4367 52.1723 82.3637C52.1049 82.3494 52.0376 82.3336 51.97 82.3191C51.7014 82.2607 51.4334 82.1984 51.1666 82.1332C51.0646 82.1082 50.9626 82.0836 50.8611 82.0576C50.5885 81.9885 50.3168 81.915 50.0462 81.8389C49.901 81.7979 49.7565 81.7551 49.6122 81.7121C49.4078 81.6514 49.2035 81.5893 48.9999 81.5246C48.825 81.4688 48.6509 81.4113 48.4772 81.3527C48.3628 81.3143 48.249 81.2744 48.1354 81.2348C35.0964 76.6721 25.7072 64.1357 25.7072 49.423C25.7072 30.8664 40.6423 15.7691 59 15.7691C77.3577 15.7691 92.2928 30.8662 92.2928 49.423C92.2928 64.1357 82.9034 76.6721 69.8644 81.2352Z" fill="url(#paint0_linear)"/>
<path d="M75.93 49.423L81.2901 39.2395C81.7526 38.3611 81.7343 37.3039 81.2421 36.4424C80.75 35.5809 79.8533 35.0361 78.8696 35.0018L67.465 34.6023L61.4204 24.8184C60.8989 23.9746 59.9842 23.4617 59 23.4617C58.0158 23.4617 57.1011 23.9746 56.5796 24.8184L50.5352 34.6023L39.1306 35.0018C38.1469 35.0361 37.2502 35.5809 36.7581 36.4424C36.2659 37.3039 36.2476 38.3611 36.7101 39.2395L42.0702 49.423L36.7101 59.6066C36.2476 60.485 36.2659 61.5422 36.7581 62.4037C37.2502 63.2652 38.1469 63.81 39.1306 63.8443L50.5352 64.2437L56.5796 74.0277C57.1009 74.8715 58.0158 75.3844 59 75.3844C59.9842 75.3844 60.8989 74.8715 61.4204 74.0277L67.4648 64.2437L78.8694 63.8443C79.8531 63.81 80.7498 63.2652 81.2419 62.4037C81.7341 61.5422 81.7524 60.485 81.2899 59.6066L75.93 49.423ZM65.75 58.5311C64.8015 58.5643 63.9311 59.0723 63.4285 59.8861L59 67.0543L54.5717 59.8863C54.0689 59.0725 53.1987 58.5647 52.2502 58.5313L43.8951 58.2385L47.8218 50.7779C48.2678 49.9309 48.2678 48.9152 47.8218 48.0682L43.8951 40.6076L52.2502 40.3148C53.1987 40.2816 54.0691 39.7736 54.5717 38.9598L59 31.792L63.4283 38.96C63.9311 39.7738 64.8013 40.2816 65.7498 40.315L74.1049 40.6078L70.1782 48.0684C69.7324 48.9154 69.7324 49.9312 70.1784 50.7781L74.1051 58.2387L65.75 58.5311Z" fill="url(#paint1_linear)"/>
</g>
<defs>
<filter id="filter0_d" x="0" y="0" width="118" height="140" filterUnits="userSpaceOnUse" color-interpolation-filters="sRGB">
<feFlood flood-opacity="0" result="BackgroundImageFix"/>
<feColorMatrix in="SourceAlpha" type="matrix" values="0 0 0 0 0 0 0 0 0 0 0 0 0 0 0 0 0 0 127 0"/>
<feOffset dy="10"/>
<feGaussianBlur stdDeviation="10"/>
<feColorMatrix type="matrix" values="0 0 0 0 1 0 0 0 0 0.572687 0 0 0 0 0 0 0 0 0.2 0"/>
<feBlend mode="normal" in2="BackgroundImageFix" result="effect1_dropShadow"/>
<feBlend mode="normal" in="SourceGraphic" in2="effect1_dropShadow" result="shape"/>
</filter>
<linearGradient id="paint0_linear" x1="68.5477" y1="10" x2="68.5477" y2="110" gradientUnits="userSpaceOnUse">
<stop stop-color="#F8A032"/>
<stop offset="1" stop-color="#F85B2E"/>
</linearGradient>
<linearGradient id="paint1_linear" x1="68.5477" y1="10" x2="68.5477" y2="110" gradientUnits="userSpaceOnUse">
<stop stop-color="#F8A032"/>
<stop offset="1" stop-color="#F85B2E"/>
</linearGradient>
</defs>
</svg>
