<svg width="140" height="140" viewBox="0 0 140 140" fill="none" xmlns="http://www.w3.org/2000/svg">
<g filter="url(#filter0_d)">
<path d="M117.07 64.8828H112.383V38.7285C112.383 35.0572 109.396 32.0703 105.725 32.0703H92.0703V12.9297C92.0703 11.3117 90.7586 10 89.1406 10H39.1406C37.5227 10 36.2109 11.3117 36.2109 12.9297V32.0703H32.6586C25.7047 32.0703 20 37.5332 20 44.375V100.193C20 105.502 24.2998 110 29.6297 110H93.2246C96.8959 110 99.8828 107.013 99.8828 103.342V101.992H105.725C109.396 101.992 112.383 99.0055 112.383 95.334V89.4922H117.07C118.688 89.4922 120 88.1805 120 86.5625V67.8125C120 66.1945 118.688 64.8828 117.07 64.8828ZM105.725 37.9297C106.165 37.9297 106.523 38.2879 106.523 38.7285V64.8828H99.8828V57.4785C99.8828 53.8502 96.942 50.8203 93.2147 50.8203H92.0703V37.9297H105.725ZM42.0703 15.8594H86.2109V50.8203H79.5703V25.625C79.5703 24.007 78.2586 22.6953 76.6406 22.6953H51.6406C50.0227 22.6953 48.7109 24.007 48.7109 25.625V50.8203H42.0703V15.8594ZM64.1406 38.3203C62.5227 38.3203 61.2109 39.632 61.2109 41.25V50.8203H54.5703V28.5547H73.7109V50.8203H67.0703V41.25C67.0703 39.632 65.7586 38.3203 64.1406 38.3203ZM27.8125 39.8553C30.2176 37.5365 32.8264 37.9297 36.2109 37.9297V50.8203C34.9834 50.8203 33.9365 50.8203 32.6586 50.8203C26.6617 50.8203 23.5957 43.9156 27.8125 39.8553ZM94.0234 103.342C94.0234 103.782 93.665 104.141 93.2246 104.141H29.6297C27.5859 104.141 25.8594 102.333 25.8594 100.193V54.7459C29.2604 56.8602 32.1492 56.6797 34.5176 56.6797H93.2246C93.665 56.6797 94.0234 57.0379 94.0234 57.4785V64.8828H86.9625C82.0248 64.8828 78.0078 68.8852 78.0078 73.8049V80.5703C78.0078 85.4898 82.0248 89.4922 86.9625 89.4922H94.0234V103.342ZM106.523 95.334C106.523 95.7744 106.165 96.1328 105.725 96.1328H99.8828V89.4922H106.523V95.334ZM114.141 83.6328H86.9625C85.2559 83.6328 83.8672 82.259 83.8672 80.5701V73.8047C83.8672 72.116 85.2557 70.742 86.9625 70.742H114.141V83.6328Z" fill="url(#paint0_linear)"/>
</g>
<defs>
<filter id="filter0_d" x="0" y="0" width="140" height="140" filterUnits="userSpaceOnUse" color-interpolation-filters="sRGB">
<feFlood flood-opacity="0" result="BackgroundImageFix"/>
<feColorMatrix in="SourceAlpha" type="matrix" values="0 0 0 0 0 0 0 0 0 0 0 0 0 0 0 0 0 0 127 0"/>
<feOffset dy="10"/>
<feGaussianBlur stdDeviation="10"/>
<feColorMatrix type="matrix" values="0 0 0 0 1 0 0 0 0 0.572687 0 0 0 0 0 0 0 0 0.2 0"/>
<feBlend mode="normal" in2="BackgroundImageFix" result="effect1_dropShadow"/>
<feBlend mode="normal" in="SourceGraphic" in2="effect1_dropShadow" result="shape"/>
</filter>
<linearGradient id="paint0_linear" x1="82.2407" y1="10" x2="82.2407" y2="110" gradientUnits="userSpaceOnUse">
<stop stop-color="#F8A032"/>
<stop offset="1" stop-color="#F85B2E"/>
</linearGradient>
</defs>
</svg>
