<svg width="140" height="140" viewBox="0 0 140 140" fill="none" xmlns="http://www.w3.org/2000/svg">
<g filter="url(#filter0_d)">
<path d="M117.07 37.7344H103.54C94.3322 36.3387 82.2531 31.1309 75.8238 28.126C77.8494 26.2396 79.7656 23.4752 79.7656 19.7656C79.7656 14.3809 75.3848 10 70 10C64.6152 10 60.2344 14.3809 60.2344 19.7656C60.2344 23.4752 62.1506 26.2396 64.1762 28.126C57.7471 31.1309 45.6678 36.3387 36.4602 37.7344H22.9297C21.3117 37.7344 20 39.0461 20 40.6641V107.07C20 108.688 21.3117 110 22.9297 110H117.07C118.688 110 120 108.688 120 107.07V40.6641C120 39.0461 118.688 37.7344 117.07 37.7344ZM70 15.8594C72.1539 15.8594 73.9062 17.6117 73.9062 19.7656C73.9062 22.4178 71.4936 24.3141 70 25.2338C68.5063 24.3139 66.0938 22.4168 66.0938 19.7656C66.0938 17.6117 67.8461 15.8594 70 15.8594ZM70 31.8348C72.3078 32.9781 77.3033 35.3736 83.2236 37.7344H56.7764C62.6967 35.3736 67.6922 32.9781 70 31.8348ZM114.141 104.141H25.8594V59.2188H114.141V104.141ZM114.141 53.3594H25.8594V43.5938C27.0322 43.5938 111.865 43.5938 114.141 43.5938V53.3594Z" fill="url(#paint0_linear)"/>
<path d="M40.7031 63.125C35.8568 63.125 31.9141 67.0678 31.9141 71.9141C31.9141 76.7604 35.8568 80.7031 40.7031 80.7031C45.5494 80.7031 49.4922 76.7604 49.4922 71.9141C49.4922 67.0678 45.5494 63.125 40.7031 63.125ZM40.7031 74.8438C39.0877 74.8438 37.7734 73.5295 37.7734 71.9141C37.7734 70.2986 39.0877 68.9844 40.7031 68.9844C42.3186 68.9844 43.6328 70.2986 43.6328 71.9141C43.6328 73.5295 42.3186 74.8438 40.7031 74.8438Z" fill="url(#paint1_linear)"/>
<path d="M60.2344 63.125C55.3881 63.125 51.4453 67.0678 51.4453 71.9141C51.4453 76.7604 55.3881 80.7031 60.2344 80.7031C65.0807 80.7031 69.0234 76.7604 69.0234 71.9141C69.0234 67.0678 65.0807 63.125 60.2344 63.125ZM60.2344 74.8438C58.6189 74.8438 57.3047 73.5295 57.3047 71.9141C57.3047 70.2986 58.6189 68.9844 60.2344 68.9844C61.8498 68.9844 63.1641 70.2986 63.1641 71.9141C63.1641 73.5295 61.8498 74.8438 60.2344 74.8438Z" fill="url(#paint2_linear)"/>
<path d="M79.7656 63.125C74.9193 63.125 70.9766 67.0678 70.9766 71.9141C70.9766 76.7604 74.9193 80.7031 79.7656 80.7031C84.6119 80.7031 88.5547 76.7604 88.5547 71.9141C88.5547 67.0678 84.6119 63.125 79.7656 63.125ZM79.7656 74.8438C78.1502 74.8438 76.8359 73.5295 76.8359 71.9141C76.8359 70.2986 78.1502 68.9844 79.7656 68.9844C81.3811 68.9844 82.6953 70.2986 82.6953 71.9141C82.6953 73.5295 81.3811 74.8438 79.7656 74.8438Z" fill="url(#paint3_linear)"/>
<path d="M99.2969 63.125C94.4506 63.125 90.5078 67.0678 90.5078 71.9141C90.5078 76.7604 94.4506 80.7031 99.2969 80.7031C104.143 80.7031 108.086 76.7604 108.086 71.9141C108.086 67.0678 104.143 63.125 99.2969 63.125ZM99.2969 74.8438C97.6814 74.8438 96.3672 73.5295 96.3672 71.9141C96.3672 70.2986 97.6814 68.9844 99.2969 68.9844C100.912 68.9844 102.227 70.2986 102.227 71.9141C102.227 73.5295 100.912 74.8438 99.2969 74.8438Z" fill="url(#paint4_linear)"/>
<path d="M40.7031 82.6562C35.8568 82.6562 31.9141 86.599 31.9141 91.4453C31.9141 96.2916 35.8568 100.234 40.7031 100.234C45.5494 100.234 49.4922 96.2916 49.4922 91.4453C49.4922 86.599 45.5494 82.6562 40.7031 82.6562ZM40.7031 94.375C39.0877 94.375 37.7734 93.0607 37.7734 91.4453C37.7734 89.8299 39.0877 88.5156 40.7031 88.5156C42.3186 88.5156 43.6328 89.8299 43.6328 91.4453C43.6328 93.0607 42.3186 94.375 40.7031 94.375Z" fill="url(#paint5_linear)"/>
<path d="M60.2344 82.6562C55.3881 82.6562 51.4453 86.599 51.4453 91.4453C51.4453 96.2916 55.3881 100.234 60.2344 100.234C65.0807 100.234 69.0234 96.2916 69.0234 91.4453C69.0234 86.599 65.0807 82.6562 60.2344 82.6562ZM60.2344 94.375C58.6189 94.375 57.3047 93.0607 57.3047 91.4453C57.3047 89.8299 58.6189 88.5156 60.2344 88.5156C61.8498 88.5156 63.1641 89.8299 63.1641 91.4453C63.1641 93.0607 61.8498 94.375 60.2344 94.375Z" fill="url(#paint6_linear)"/>
<path d="M79.7656 82.6562C74.9193 82.6562 70.9766 86.599 70.9766 91.4453C70.9766 96.2916 74.9193 100.234 79.7656 100.234C84.6119 100.234 88.5547 96.2916 88.5547 91.4453C88.5547 86.599 84.6119 82.6562 79.7656 82.6562ZM79.7656 94.375C78.1502 94.375 76.8359 93.0607 76.8359 91.4453C76.8359 89.8299 78.1502 88.5156 79.7656 88.5156C81.3811 88.5156 82.6953 89.8299 82.6953 91.4453C82.6953 93.0607 81.3811 94.375 79.7656 94.375Z" fill="url(#paint7_linear)"/>
<path d="M99.2969 82.6562C94.4506 82.6562 90.5078 86.599 90.5078 91.4453C90.5078 96.2916 94.4506 100.234 99.2969 100.234C104.143 100.234 108.086 96.2916 108.086 91.4453C108.086 86.599 104.143 82.6562 99.2969 82.6562ZM99.2969 94.375C97.6814 94.375 96.3672 93.0607 96.3672 91.4453C96.3672 89.8299 97.6814 88.5156 99.2969 88.5156C100.912 88.5156 102.227 89.8299 102.227 91.4453C102.227 93.0607 100.912 94.375 99.2969 94.375Z" fill="url(#paint8_linear)"/>
</g>
<defs>
<filter id="filter0_d" x="0" y="0" width="140" height="140" filterUnits="userSpaceOnUse" color-interpolation-filters="sRGB">
<feFlood flood-opacity="0" result="BackgroundImageFix"/>
<feColorMatrix in="SourceAlpha" type="matrix" values="0 0 0 0 0 0 0 0 0 0 0 0 0 0 0 0 0 0 127 0"/>
<feOffset dy="10"/>
<feGaussianBlur stdDeviation="10"/>
<feColorMatrix type="matrix" values="0 0 0 0 1 0 0 0 0 0.572687 0 0 0 0 0 0 0 0 0.2 0"/>
<feBlend mode="normal" in2="BackgroundImageFix" result="effect1_dropShadow"/>
<feBlend mode="normal" in="SourceGraphic" in2="effect1_dropShadow" result="shape"/>
</filter>
<linearGradient id="paint0_linear" x1="82.2407" y1="10" x2="82.2407" y2="110" gradientUnits="userSpaceOnUse">
<stop stop-color="#F8A032"/>
<stop offset="1" stop-color="#F85B2E"/>
</linearGradient>
<linearGradient id="paint1_linear" x1="82.2407" y1="10" x2="82.2407" y2="110" gradientUnits="userSpaceOnUse">
<stop stop-color="#F8A032"/>
<stop offset="1" stop-color="#F85B2E"/>
</linearGradient>
<linearGradient id="paint2_linear" x1="82.2407" y1="10" x2="82.2407" y2="110" gradientUnits="userSpaceOnUse">
<stop stop-color="#F8A032"/>
<stop offset="1" stop-color="#F85B2E"/>
</linearGradient>
<linearGradient id="paint3_linear" x1="82.2407" y1="10" x2="82.2407" y2="110" gradientUnits="userSpaceOnUse">
<stop stop-color="#F8A032"/>
<stop offset="1" stop-color="#F85B2E"/>
</linearGradient>
<linearGradient id="paint4_linear" x1="82.2407" y1="10" x2="82.2407" y2="110" gradientUnits="userSpaceOnUse">
<stop stop-color="#F8A032"/>
<stop offset="1" stop-color="#F85B2E"/>
</linearGradient>
<linearGradient id="paint5_linear" x1="82.2407" y1="10" x2="82.2407" y2="110" gradientUnits="userSpaceOnUse">
<stop stop-color="#F8A032"/>
<stop offset="1" stop-color="#F85B2E"/>
</linearGradient>
<linearGradient id="paint6_linear" x1="82.2407" y1="10" x2="82.2407" y2="110" gradientUnits="userSpaceOnUse">
<stop stop-color="#F8A032"/>
<stop offset="1" stop-color="#F85B2E"/>
</linearGradient>
<linearGradient id="paint7_linear" x1="82.2407" y1="10" x2="82.2407" y2="110" gradientUnits="userSpaceOnUse">
<stop stop-color="#F8A032"/>
<stop offset="1" stop-color="#F85B2E"/>
</linearGradient>
<linearGradient id="paint8_linear" x1="82.2407" y1="10" x2="82.2407" y2="110" gradientUnits="userSpaceOnUse">
<stop stop-color="#F8A032"/>
<stop offset="1" stop-color="#F85B2E"/>
</linearGradient>
</defs>
</svg>
