<svg width="40" height="50" viewBox="0 0 40 50" fill="none" xmlns="http://www.w3.org/2000/svg">
<path d="M20 0C14.6976 0.00617907 9.61418 2.07767 5.86481 5.76008C2.11545 9.4425 0.00629141 14.4351 0 19.6429C0 36.4502 18.1818 49.1455 18.956 49.6774C19.2621 49.8874 19.6266 50 20 50C20.3734 50 20.7379 49.8874 21.044 49.6774C21.8182 49.1455 40 36.4502 40 19.6429C39.9937 14.4351 37.8846 9.4425 34.1352 5.76008C30.3858 2.07767 25.3024 0.00617848 20 0ZM20.0013 12.5006C21.4397 12.5006 22.8458 12.9196 24.0418 13.7044C25.2378 14.4893 26.17 15.6049 26.7205 16.9101C27.2709 18.2152 27.4149 19.6514 27.1343 21.037C26.8537 22.4226 26.161 23.6953 25.1439 24.6943C24.1268 25.6932 22.8309 26.3735 21.4202 26.6491C20.0094 26.9247 18.5471 26.7833 17.2182 26.2426C15.8893 25.702 14.7534 24.7865 13.9543 23.6119C13.1551 22.4372 12.7286 21.0562 12.7286 19.6435C12.7286 18.7055 12.9167 17.7766 13.2822 16.91C13.6476 16.0434 14.1833 15.256 14.8587 14.5927C15.534 13.9294 16.3358 13.4033 17.2181 13.0443C18.1005 12.6854 19.0463 12.5006 20.0013 12.5006Z" fill="url(#paint0_linear)"/>
<defs>
<linearGradient id="paint0_linear" x1="20" y1="0" x2="20" y2="50" gradientUnits="userSpaceOnUse">
<stop stop-color="#F8A032"/>
<stop offset="1" stop-color="#F85B2E"/>
</linearGradient>
</defs>
</svg>
