<svg width="48" height="29" viewBox="0 0 48 29" fill="none" xmlns="http://www.w3.org/2000/svg">
<path d="M47.6962 14.164C47.6962 21.936 41.3768 28.328 33.5322 28.328C25.7601 28.328 19.3682 21.936 19.3682 14.164C19.3682 6.39196 25.6875 0 33.4595 0C41.3768 0 47.6962 6.39196 47.6962 14.164Z" fill="#F9B50B"/>
<path d="M28.7378 14.2366C28.7378 13.2197 28.5925 12.2028 28.4472 11.2586H19.7309C19.8036 10.7501 19.9488 10.3143 20.0941 9.73321H27.8662C27.7209 9.22476 27.503 8.71631 27.2851 8.20786H20.6752C20.8931 7.69941 21.1837 7.26359 21.4742 6.6825H26.4861C26.1955 6.17405 25.8324 5.6656 25.3965 5.15715H22.6364C23.0722 4.6487 23.508 4.21288 24.0891 3.70443C21.6195 1.38008 18.2782 0 14.5738 0C6.87438 0.217908 0.482422 6.39196 0.482422 14.164C0.482422 21.936 6.80175 28.328 14.6464 28.328C18.3509 28.328 21.6195 26.8753 24.1617 24.6236C24.6702 24.1878 25.106 23.6793 25.6144 23.0982H22.709C22.3458 22.6624 21.9827 22.154 21.6921 21.6455H26.6313C26.9219 21.2097 27.2124 20.7012 27.4303 20.1201H20.8205C20.6026 19.6843 20.3847 19.1759 20.2394 18.5948H28.0114C28.4472 17.2873 28.7378 15.8346 28.7378 14.2366Z" fill="#C8191C"/>
<path d="M19.6586 17.7954L19.8765 16.488C19.8038 16.488 19.6586 16.5606 19.5133 16.5606C19.0048 16.5606 18.9322 16.2701 19.0048 16.1248L19.4407 13.5099H20.2397L20.4576 12.0572H19.7312L19.8765 11.1855H18.3511C18.3511 11.1855 17.4795 16.1248 17.4795 16.7059C17.4795 17.5775 17.9879 18.0133 18.7143 18.0133C19.1501 18.0133 19.5133 17.8681 19.6586 17.7954Z" fill="white"/>
<path d="M20.167 15.399C20.167 17.5054 21.6197 18.0139 22.7819 18.0139C23.8714 18.0139 24.3799 17.7959 24.3799 17.7959L24.6704 16.3432C24.6704 16.3432 23.8714 16.7064 23.0724 16.7064C21.4018 16.7064 21.6923 15.4716 21.6923 15.4716H24.7431C24.7431 15.4716 24.961 14.5273 24.961 14.0915C24.961 13.1473 24.4525 11.9124 22.7819 11.9124C21.3292 11.8398 20.167 13.5104 20.167 15.399ZM22.7819 13.2199C23.5809 13.2199 23.4356 14.1642 23.4356 14.2368H21.765C21.8376 14.1642 21.9829 13.2199 22.7819 13.2199Z" fill="white"/>
<path d="M32.2975 17.7952L32.588 16.1246C32.588 16.1246 31.8617 16.4878 31.2806 16.4878C30.2637 16.4878 29.7552 15.6888 29.7552 14.7445C29.7552 12.9286 30.6268 11.9843 31.7164 11.9843C32.4427 11.9843 33.0965 12.4202 33.0965 12.4202L33.3144 10.8222C33.3144 10.8222 32.4427 10.459 31.5711 10.459C29.8279 10.459 28.1572 11.9843 28.1572 14.8171C28.1572 16.7057 29.0289 17.9405 30.8448 17.9405C31.4985 18.0131 32.2975 17.7952 32.2975 17.7952Z" fill="white"/>
<path d="M11.451 11.8398C10.4341 11.8398 9.63507 12.1304 9.63507 12.1304L9.41716 13.4378C9.41716 13.4378 10.0709 13.1473 11.0878 13.1473C11.5962 13.1473 12.0321 13.2199 12.0321 13.6557C12.0321 13.9463 11.9594 14.0189 11.9594 14.0189H11.3057C9.99825 14.0189 8.61816 14.5274 8.61816 16.2706C8.61816 17.6507 9.48979 17.9413 10.0709 17.9413C11.0878 17.9413 11.5962 17.2875 11.6689 17.2875L11.5962 17.8686H12.831L13.4121 13.7284C13.4121 11.9125 11.9594 11.8398 11.451 11.8398ZM11.7415 15.1811C11.7415 15.399 11.5962 16.6338 10.7246 16.6338C10.2888 16.6338 10.1435 16.2706 10.1435 16.0527C10.1435 15.6895 10.3614 15.1811 11.5236 15.1811C11.6689 15.1811 11.7415 15.1811 11.7415 15.1811Z" fill="white"/>
<path d="M14.8647 17.9416C15.2279 17.9416 17.1164 18.0143 17.1164 15.9805C17.1164 14.0919 15.3005 14.4551 15.3005 13.7287C15.3005 13.3656 15.5911 13.2203 16.0995 13.2203C16.3174 13.2203 17.1164 13.2929 17.1164 13.2929L17.3343 11.9128C17.3343 11.9128 16.8259 11.7676 15.8816 11.7676C14.7921 11.7676 13.6299 12.2034 13.6299 13.7287C13.6299 15.472 15.5185 15.3267 15.5185 15.9805C15.5185 16.4163 15.01 16.4889 14.6468 16.4889C13.9931 16.4889 13.2667 16.271 13.2667 16.271L13.0488 17.6511C13.1941 17.7964 13.6299 17.9416 14.8647 17.9416Z" fill="white"/>
<path d="M44.7904 10.6777L44.4999 12.7115C44.4999 12.7115 43.9188 11.9852 43.0471 11.9852C41.6671 11.9852 40.5049 13.6558 40.5049 15.617C40.5049 16.8518 41.086 18.0866 42.3934 18.0866C43.265 18.0866 43.8461 17.5055 43.8461 17.5055L43.7735 18.014H45.2989L46.3884 10.823L44.7904 10.6777ZM44.064 14.6001C44.064 15.3991 43.7009 16.4886 42.8292 16.4886C42.3208 16.4886 42.0302 16.0528 42.0302 15.2538C42.0302 14.019 42.5387 13.2926 43.265 13.2926C43.7735 13.3653 44.064 13.7284 44.064 14.6001Z" fill="white"/>
<path d="M3.24276 17.8687L4.11439 12.4936L4.25966 17.8687H5.27656L7.23773 12.4936L6.43874 17.8687H8.03673L9.27154 10.6777H6.80192L5.27656 15.1085L5.20393 10.6777H3.02485L1.79004 17.8687H3.24276Z" fill="white"/>
<path d="M26.4861 17.8679C26.9219 15.3983 26.9945 13.3645 28.084 13.7276C28.2293 12.7834 28.4472 12.3476 28.5925 11.9844H28.302C27.6482 11.9844 27.0671 12.856 27.0671 12.856L27.2124 12.057H25.7597L24.8154 17.8679H26.4861Z" fill="white"/>
<path d="M35.784 11.8398C34.7671 11.8398 33.9681 12.1304 33.9681 12.1304L33.7502 13.4378C33.7502 13.4378 34.4039 13.1473 35.4208 13.1473C35.9292 13.1473 36.3651 13.2199 36.3651 13.6557C36.3651 13.9463 36.2924 14.0189 36.2924 14.0189H35.6387C34.3313 14.0189 32.9512 14.5274 32.9512 16.2706C32.9512 17.6507 33.8228 17.9413 34.4039 17.9413C35.4208 17.9413 35.9292 17.2875 36.0019 17.2875L35.9292 17.8686H37.3093L37.8904 13.7284C37.8904 11.9125 36.2924 11.8398 35.784 11.8398ZM36.1472 15.1811C36.1472 15.399 36.0019 16.6338 35.1302 16.6338C34.6944 16.6338 34.5492 16.2706 34.5492 16.0527C34.5492 15.6895 34.7671 15.1811 35.9292 15.1811C36.0745 15.1811 36.0745 15.1811 36.1472 15.1811Z" fill="white"/>
<path d="M39.0525 17.8679C39.4883 15.3983 39.5609 13.3645 40.6505 13.7276C40.7957 12.7834 41.0136 12.3476 41.1589 11.9844H40.8684C40.2146 11.9844 39.6336 12.856 39.6336 12.856L39.7788 12.057H38.3261L37.3818 17.8679H39.0525Z" fill="white"/>
</svg>
