<svg width="39" height="12" viewBox="0 0 39 12" fill="none" xmlns="http://www.w3.org/2000/svg">
<path d="M34.8653 0.535156H27.3838C27.8196 3.00478 30.2166 5.32913 32.8315 5.32913H38.7876C38.8603 5.11122 38.8603 4.74804 38.8603 4.53013C38.8603 2.35105 37.0444 0.535156 34.8653 0.535156Z" fill="url(#paint0_linear)"/>
<path d="M28.0371 5.76465V11.7934H31.6689V8.59744H34.8649C36.6081 8.59744 38.1335 7.36264 38.642 5.76465H28.0371Z" fill="#4FAD50"/>
<path d="M15.2539 0.535156V11.7211H18.4499C18.4499 11.7211 19.2489 11.7211 19.6847 10.9221C21.8638 6.63658 22.5175 5.32913 22.5175 5.32913H22.9533V11.7211H26.5851V0.535156H23.3891C23.3891 0.535156 22.5901 0.607797 22.1543 1.33416C20.3384 5.03859 19.3215 6.92712 19.3215 6.92712H18.8857V0.535156H15.2539Z" fill="#4FAD50"/>
<path d="M0 11.7933V0.607422H3.6318C3.6318 0.607422 4.64871 0.60742 5.22979 2.20541C6.68251 6.41829 6.82779 6.99938 6.82779 6.99938C6.82779 6.99938 7.11832 5.98248 8.42577 2.20541C9.00686 0.60742 10.0238 0.607422 10.0238 0.607422H13.6556V11.7933H10.0238V5.76458H9.58795L7.55415 11.7933H5.95615L3.92236 5.76458H3.48654V11.7933H0Z" fill="#4FAD50"/>
<defs>
<linearGradient id="paint0_linear" x1="27.3709" y1="2.9665" x2="38.8345" y2="2.9665" gradientUnits="userSpaceOnUse">
<stop stop-color="#27B1E6"/>
<stop offset="1" stop-color="#148ACA"/>
</linearGradient>
</defs>
</svg>
