<svg width="40" height="42" viewBox="0 0 40 42" fill="none" xmlns="http://www.w3.org/2000/svg">
<g filter="url(#filter0_d)">
<path d="M32.9687 5.85938C32.9687 2.62852 30.3402 0 27.1094 0C23.8785 0 21.25 2.62852 21.25 5.85938V26.0672C19.7544 27.5965 18.9062 29.6559 18.9062 31.7969C18.9062 36.3201 22.5862 40 27.1094 40C31.6326 40 35.3125 36.3201 35.3125 31.7969C35.3125 29.6558 34.4643 27.5964 32.9687 26.0672V5.85938ZM27.1094 37.6562C23.8785 37.6562 21.25 35.0277 21.25 31.7969C21.25 30.1413 21.9623 28.5529 23.2043 27.439C23.4521 27.2167 23.5937 26.8995 23.5937 26.5666V5.85938C23.5937 3.92086 25.1708 2.34375 27.1094 2.34375C29.0479 2.34375 30.625 3.92086 30.625 5.85938V26.5666C30.625 26.8995 30.7666 27.2167 31.0144 27.439C32.2564 28.5529 32.9687 30.1413 32.9687 31.7969C32.9687 35.0277 30.3402 37.6562 27.1094 37.6562Z" fill="white"/>
<path d="M28.2812 28.4829V25.5469C28.2812 24.8997 27.7565 24.375 27.1094 24.375C26.4622 24.375 25.9375 24.8997 25.9375 25.5469V28.4828C24.5735 28.9666 23.5937 30.2691 23.5937 31.7969C23.5937 33.7354 25.1708 35.3125 27.1094 35.3125C29.0479 35.3125 30.625 33.7354 30.625 31.7969C30.625 30.2692 29.6452 28.9666 28.2812 28.4829ZM27.1094 32.9688C26.4632 32.9688 25.9375 32.443 25.9375 31.7969C25.9375 31.1507 26.4632 30.625 27.1094 30.625C27.7555 30.625 28.2812 31.1507 28.2812 31.7969C28.2812 32.443 27.7555 32.9688 27.1094 32.9688Z" fill="white"/>
<path d="M36.4844 7.03125H38.8281C39.4753 7.03125 40 6.50656 40 5.85938C40 5.21219 39.4753 4.6875 38.8281 4.6875H36.4844C35.8372 4.6875 35.3125 5.21219 35.3125 5.85938C35.3125 6.50656 35.8372 7.03125 36.4844 7.03125Z" fill="white"/>
<path d="M36.4844 11.7188H37.6562C38.3034 11.7188 38.8281 11.1941 38.8281 10.5469C38.8281 9.89969 38.3034 9.375 37.6562 9.375H36.4844C35.8372 9.375 35.3125 9.89969 35.3125 10.5469C35.3125 11.1941 35.8372 11.7188 36.4844 11.7188Z" fill="white"/>
<path d="M38.8281 14.0625H36.4844C35.8372 14.0625 35.3125 14.5872 35.3125 15.2344C35.3125 15.8816 35.8372 16.4062 36.4844 16.4062H38.8281C39.4753 16.4062 40 15.8816 40 15.2344C40 14.5872 39.4753 14.0625 38.8281 14.0625Z" fill="white"/>
<path d="M36.4844 21.0938H37.6562C38.3034 21.0938 38.8281 20.5691 38.8281 19.9219C38.8281 19.2747 38.3034 18.75 37.6562 18.75H36.4844C35.8372 18.75 35.3125 19.2747 35.3125 19.9219C35.3125 20.5691 35.8372 21.0938 36.4844 21.0938Z" fill="white"/>
<path d="M38.8281 23.4375H36.4844C35.8372 23.4375 35.3125 23.9622 35.3125 24.6094C35.3125 25.2566 35.8372 25.7812 36.4844 25.7812H38.8281C39.4753 25.7812 40 25.2566 40 24.6094C40 23.9622 39.4753 23.4375 38.8281 23.4375Z" fill="white"/>
<path d="M19.5326 11.7295C19.3651 11.1043 18.7229 10.733 18.0974 10.9009L15.3647 11.6331L13.2423 10.4077C13.2808 10.1994 13.3021 9.985 13.3021 9.7657C13.3021 9.54633 13.2809 9.33195 13.2423 9.12367L15.3647 7.89828L18.0974 8.63055C18.199 8.65781 18.301 8.67078 18.4015 8.67078C18.9189 8.67078 19.3924 8.32547 19.5326 7.80188C19.7001 7.17672 19.3292 6.53414 18.7041 6.36664L16.6344 5.81203L17.1889 3.74234C17.3564 3.11719 16.9855 2.47461 16.3603 2.30711C15.735 2.13945 15.0925 2.51063 14.9251 3.1357L14.1929 5.86852L12.0687 7.09484C11.7441 6.81703 11.3688 6.59719 10.9583 6.45164V4.00102L12.9588 2.00055C13.4165 1.54289 13.4165 0.800937 12.9588 0.343281C12.5012 -0.114375 11.7592 -0.114375 11.3015 0.343281L9.78639 1.85836L8.27131 0.343281C7.81374 -0.114375 7.07171 -0.114375 6.61405 0.343281C6.15639 0.800937 6.15639 1.54289 6.61405 2.00055L8.61452 4.00102V6.45156C8.20405 6.59711 7.82874 6.81695 7.50413 7.09477L5.38006 5.86852L4.6478 3.1357C4.4803 2.51063 3.83788 2.13937 3.21257 2.30711C2.58741 2.47461 2.21647 3.11719 2.38397 3.74234L2.93858 5.81203L0.868893 6.36664C0.243659 6.53406 -0.127279 7.17672 0.0402215 7.80188C0.180534 8.32547 0.653971 8.67078 1.17139 8.67078C1.27178 8.67078 1.37382 8.65773 1.47546 8.63055L4.20819 7.89828L6.33061 9.12367C6.29202 9.33203 6.27077 9.54641 6.27077 9.7657C6.27077 9.98508 6.29194 10.1995 6.33061 10.4078L4.20819 11.6331L1.47546 10.9009C0.849987 10.7332 0.207643 11.1043 0.0402215 11.7295C-0.127279 12.3546 0.243659 12.9972 0.868815 13.1647L2.9385 13.7193L2.38389 15.789C2.21639 16.4141 2.58733 17.0567 3.21249 17.2242C3.31413 17.2515 3.41608 17.2645 3.51655 17.2645C4.03397 17.2645 4.50749 16.9191 4.64772 16.3955L5.37999 13.6627L7.50405 12.4364C7.82866 12.7142 8.20397 12.9341 8.61444 13.0796V15.5302L6.61405 17.5308C6.15639 17.9884 6.15639 18.7304 6.61405 19.188C7.07163 19.6457 7.81366 19.6457 8.27131 19.188L9.78647 17.673L11.3016 19.188C11.5305 19.4169 11.8304 19.5313 12.1302 19.5313C12.4301 19.5313 12.7301 19.417 12.9588 19.188C13.4165 18.7304 13.4165 17.9884 12.9588 17.5308L10.9583 15.5303V13.0797C11.3688 12.9341 11.7441 12.7143 12.0687 12.4365L14.1928 13.6628L14.925 16.3956C15.0652 16.9192 15.5387 17.2645 16.0562 17.2645C16.1565 17.2645 16.2586 17.2515 16.3602 17.2243C16.9854 17.0568 17.3563 16.4142 17.1888 15.7891L16.6343 13.7194L18.704 13.1648C19.3291 12.9972 19.7001 12.3546 19.5326 11.7295ZM9.78639 10.9375C9.14022 10.9375 8.61452 10.4118 8.61452 9.76562C8.61452 9.11945 9.14022 8.59375 9.78639 8.59375C10.4326 8.59375 10.9583 9.11945 10.9583 9.76562C10.9583 10.4118 10.4326 10.9375 9.78639 10.9375Z" fill="white"/>
</g>
<defs>
<filter id="filter0_d" x="0" y="0" width="40" height="42" filterUnits="userSpaceOnUse" color-interpolation-filters="sRGB">
<feFlood flood-opacity="0" result="BackgroundImageFix"/>
<feColorMatrix in="SourceAlpha" type="matrix" values="0 0 0 0 0 0 0 0 0 0 0 0 0 0 0 0 0 0 127 0"/>
<feOffset dy="2"/>
<feColorMatrix type="matrix" values="0 0 0 0 0 0 0 0 0 0 0 0 0 0 0 0 0 0 0.25 0"/>
<feBlend mode="normal" in2="BackgroundImageFix" result="effect1_dropShadow"/>
<feBlend mode="normal" in="SourceGraphic" in2="effect1_dropShadow" result="shape"/>
</filter>
</defs>
</svg>
