<svg width="36" height="42" viewBox="0 0 36 42" fill="none" xmlns="http://www.w3.org/2000/svg">
<g filter="url(#filter0_d)">
<path d="M4.6875 30.625H5.17487C6.70868 36.0297 11.6885 40 17.5781 40C23.4677 40 28.4476 36.0297 29.9814 30.625H30.4688C33.0536 30.625 35.1562 28.5223 35.1562 25.9375C35.1562 25.0412 34.903 24.2029 34.4647 23.49C34.8721 23.3066 35.1562 22.8976 35.1562 22.4219V17.7344C35.1562 17.0871 34.6317 16.5625 33.9844 16.5625H32.7582C32.3495 11.9833 29.5844 8.05023 25.7812 6.09619V5.85938C25.7812 3.9209 24.2041 2.34375 22.2656 2.34375H21.0938C21.0938 1.05133 20.0424 0 18.75 0H16.4062C15.1138 0 14.0625 1.05133 14.0625 2.34375H12.8906C10.9521 2.34375 9.375 3.9209 9.375 5.85938V6.09619C5.57343 8.04932 2.80701 11.9815 2.39807 16.5625H1.17188C0.524597 16.5625 0 17.0871 0 17.7344V22.4219C0 22.8976 0.284119 23.3066 0.691528 23.49C0.253296 24.2029 0 25.0412 0 25.9375C0 28.5223 2.10266 30.625 4.6875 30.625ZM4.6875 28.2812C3.39508 28.2812 2.34375 27.2299 2.34375 25.9375C2.34375 24.6451 3.39508 23.5938 4.6875 23.5938V27.1094C4.6875 27.5046 4.70642 27.8952 4.74121 28.2812H4.6875ZM17.5781 37.6562C11.7627 37.6562 7.03125 32.9248 7.03125 27.1094V23.5938H28.125V27.1094C28.125 32.9248 23.3936 37.6562 17.5781 37.6562ZM30.4688 28.2812H30.415C30.4498 27.8952 30.4688 27.5046 30.4688 27.1094V23.5938C31.7612 23.5938 32.8125 24.6451 32.8125 25.9375C32.8125 27.2299 31.7612 28.2812 30.4688 28.2812ZM9.375 8.81927V10.5469C9.375 11.1942 9.8996 11.7188 10.5469 11.7188C11.1942 11.7188 11.7188 11.1942 11.7188 10.5469C11.7188 8.97949 11.7188 7.58575 11.7188 5.85938C11.7188 5.21332 12.2446 4.6875 12.8906 4.6875H14.0625V8.20312C14.0625 8.8504 14.5871 9.375 15.2344 9.375C15.8817 9.375 16.4062 8.8504 16.4062 8.20312V2.34375H18.75V8.20312C18.75 8.8504 19.2746 9.375 19.9219 9.375C20.5692 9.375 21.0938 8.8504 21.0938 8.20312V4.6875H22.2656C22.9117 4.6875 23.4375 5.21332 23.4375 5.85938V10.5469C23.4375 11.1942 23.9621 11.7188 24.6094 11.7188C25.2567 11.7188 25.7812 11.1942 25.7812 10.5469V8.81927C28.3273 10.5594 30.0543 13.429 30.4034 16.5625H4.75281C5.10193 13.429 6.82892 10.5594 9.375 8.81927ZM2.34375 18.9062H32.8125V21.25C31.2888 21.25 3.07953 21.25 2.34375 21.25V18.9062Z" fill="white"/>
</g>
<defs>
<filter id="filter0_d" x="0" y="0" width="35.1562" height="42" filterUnits="userSpaceOnUse" color-interpolation-filters="sRGB">
<feFlood flood-opacity="0" result="BackgroundImageFix"/>
<feColorMatrix in="SourceAlpha" type="matrix" values="0 0 0 0 0 0 0 0 0 0 0 0 0 0 0 0 0 0 127 0"/>
<feOffset dy="2"/>
<feColorMatrix type="matrix" values="0 0 0 0 0 0 0 0 0 0 0 0 0 0 0 0 0 0 0.25 0"/>
<feBlend mode="normal" in2="BackgroundImageFix" result="effect1_dropShadow"/>
<feBlend mode="normal" in="SourceGraphic" in2="effect1_dropShadow" result="shape"/>
</filter>
</defs>
</svg>
