<svg width="33" height="42" viewBox="0 0 33 42" fill="none" xmlns="http://www.w3.org/2000/svg">
<g filter="url(#filter0_d)">
<path d="M10.6071 18.9062C7.35778 18.9062 4.71429 21.5347 4.71429 24.7656C4.71429 26.6785 5.64118 28.3798 7.07143 29.4501V34.1406C7.07143 34.5468 7.2829 34.924 7.63033 35.1376C7.97776 35.351 8.41175 35.3705 8.77698 35.1889L10.6071 34.2789L12.4373 35.1889C12.8032 35.3708 13.2371 35.3506 13.584 35.1376C13.9314 34.924 14.1429 34.5468 14.1429 34.1406V29.4501C15.5731 28.3798 16.5 26.6785 16.5 24.7656C16.5 21.5347 13.8565 18.9062 10.6071 18.9062ZM11.7857 32.2446L11.1341 31.9205C10.8023 31.7557 10.4119 31.7557 10.0802 31.9205L9.42857 32.2446V30.5069C9.80946 30.5841 10.2035 30.625 10.6071 30.625C11.0107 30.625 11.4048 30.5841 11.7857 30.5069V32.2446ZM10.6071 28.2812C8.65759 28.2812 7.07143 26.7041 7.07143 24.7656C7.07143 22.8271 8.65759 21.25 10.6071 21.25C12.5567 21.25 14.1429 22.8271 14.1429 24.7656C14.1429 26.7041 12.5567 28.2812 10.6071 28.2812Z" fill="white"/>
<path d="M1.17857 0C0.527595 0 0 0.524597 0 1.17188V38.8281C0 39.4754 0.527595 40 1.17857 40H22.3929C22.7062 40 23.0079 39.874 23.2265 39.6567L32.6547 30.282C32.8686 30.0693 33 29.7708 33 29.4531V1.17188C33 0.524597 32.4724 0 31.8214 0H1.17857ZM2.35714 2.34375H30.6429V28.2812H22.3929C21.7419 28.2812 21.2143 28.8058 21.2143 29.4531V37.6562H2.35714V2.34375ZM28.976 30.625L23.5714 35.9988V30.625H28.976Z" fill="white"/>
<path d="M5.89286 11.875H27.1071C27.7581 11.875 28.2857 11.3504 28.2857 10.7031V5.85938C28.2857 5.2121 27.7581 4.6875 27.1071 4.6875H5.89286C5.24188 4.6875 4.71429 5.2121 4.71429 5.85938V10.7031C4.71429 11.3504 5.24188 11.875 5.89286 11.875ZM7.07143 7.03125H25.9286V9.53125H7.07143V7.03125Z" fill="white"/>
<path d="M5.89286 16.5625H27.1071C27.7581 16.5625 28.2857 16.0379 28.2857 15.3906C28.2857 14.7433 27.7581 14.2188 27.1071 14.2188H5.89286C5.24188 14.2188 4.71429 14.7433 4.71429 15.3906C4.71429 16.0379 5.24188 16.5625 5.89286 16.5625Z" fill="white"/>
<path d="M27.1071 18.9062H20.0357C19.3847 18.9062 18.8571 19.4308 18.8571 20.0781C18.8571 20.7254 19.3847 21.25 20.0357 21.25H27.1071C27.7581 21.25 28.2857 20.7254 28.2857 20.0781C28.2857 19.4308 27.7581 18.9062 27.1071 18.9062Z" fill="white"/>
<path d="M27.1071 25.9375C27.7581 25.9375 28.2857 25.4129 28.2857 24.7656C28.2857 24.1183 27.7581 23.5938 27.1071 23.5938H20.0357C19.3847 23.5938 18.8571 24.1183 18.8571 24.7656C18.8571 25.4129 19.3847 25.9375 20.0357 25.9375H27.1071Z" fill="white"/>
</g>
<defs>
<filter id="filter0_d" x="0" y="0" width="33" height="42" filterUnits="userSpaceOnUse" color-interpolation-filters="sRGB">
<feFlood flood-opacity="0" result="BackgroundImageFix"/>
<feColorMatrix in="SourceAlpha" type="matrix" values="0 0 0 0 0 0 0 0 0 0 0 0 0 0 0 0 0 0 127 0"/>
<feOffset dy="2"/>
<feColorMatrix type="matrix" values="0 0 0 0 0 0 0 0 0 0 0 0 0 0 0 0 0 0 0.25 0"/>
<feBlend mode="normal" in2="BackgroundImageFix" result="effect1_dropShadow"/>
<feBlend mode="normal" in="SourceGraphic" in2="effect1_dropShadow" result="shape"/>
</filter>
</defs>
</svg>
