<svg width="32" height="42" viewBox="0 0 32 42" fill="none" xmlns="http://www.w3.org/2000/svg">
<g filter="url(#filter0_d)">
<path d="M15.7692 0C7.07406 0 0 7.07398 0 15.7692C0 21.1882 2.74781 25.9772 6.92305 28.817V38.8461C6.92305 39.2377 7.12156 39.6025 7.45039 39.815C7.77906 40.0276 8.19328 40.0588 8.55039 39.8983L15.7692 36.6499L22.988 39.8984C23.1392 39.9663 23.3005 40 23.4614 40C23.6805 40 23.8984 39.9377 24.088 39.8151C24.4168 39.6025 24.6154 39.2377 24.6154 38.8462V28.817C28.7906 25.9773 31.5384 21.1883 31.5384 15.7693C31.5384 7.07398 24.4644 0 15.7692 0ZM22.3077 37.0617L16.2427 34.3325C16.0921 34.2647 15.9306 34.2308 15.7692 34.2308C15.6078 34.2308 15.4463 34.2646 15.2958 34.3324L9.23078 37.0616V30.1214C9.8107 30.3858 10.4059 30.613 11.0124 30.8046C11.0468 30.8155 11.0811 30.8267 11.1156 30.8373C11.193 30.8612 11.2707 30.8841 11.3484 30.9067C11.406 30.9236 11.4636 30.9403 11.5213 30.9566C11.5841 30.9741 11.647 30.991 11.71 31.0077C11.7834 31.0273 11.857 31.0465 11.9309 31.0651C11.983 31.0781 12.0353 31.0909 12.0877 31.1034C12.1726 31.1237 12.2577 31.1434 12.3432 31.1624C12.3875 31.1723 12.4319 31.182 12.4763 31.1915C12.5698 31.2115 12.6638 31.2304 12.758 31.2488C12.7964 31.2562 12.8348 31.2638 12.8732 31.2709C12.973 31.2895 13.0733 31.307 13.1737 31.3237C13.2082 31.3295 13.2427 31.3354 13.2772 31.3409C13.3809 31.3574 13.485 31.3727 13.5895 31.3871C13.6218 31.3916 13.6541 31.3964 13.6864 31.4007C13.7921 31.4147 13.8983 31.4273 14.0045 31.4391C14.0363 31.4427 14.0678 31.4466 14.0995 31.4501C14.2055 31.4613 14.312 31.4709 14.4186 31.48C14.4509 31.4827 14.4831 31.4861 14.5155 31.4886C14.6206 31.4969 14.7262 31.5035 14.8319 31.5098C14.8658 31.5118 14.8995 31.5145 14.9336 31.5162C15.0404 31.5219 15.1476 31.5257 15.2549 31.5291C15.2873 31.5302 15.3194 31.532 15.3517 31.5328C15.4905 31.5364 15.6297 31.5384 15.7694 31.5384C15.909 31.5384 16.0482 31.5364 16.187 31.5328C16.2193 31.532 16.2514 31.5302 16.2838 31.5291C16.3911 31.5257 16.4983 31.5218 16.6051 31.5162C16.639 31.5145 16.6728 31.5118 16.7068 31.5098C16.8125 31.5035 16.918 31.497 17.0231 31.4886C17.0555 31.4861 17.0877 31.4827 17.1201 31.48C17.2267 31.4709 17.3331 31.4613 17.4391 31.4501C17.4709 31.4467 17.5024 31.4427 17.5341 31.4391C17.6405 31.4272 17.7466 31.4147 17.8523 31.4007C17.8847 31.3964 17.9169 31.3916 17.9492 31.3871C18.0536 31.3727 18.1577 31.3574 18.2615 31.3409C18.296 31.3353 18.3304 31.3294 18.3649 31.3237C18.4654 31.307 18.5656 31.2895 18.6655 31.2709C18.7039 31.2638 18.7423 31.2563 18.7806 31.2488C18.8748 31.2305 18.9688 31.2114 19.0624 31.1915C19.1069 31.182 19.1512 31.1723 19.1955 31.1624C19.2809 31.1434 19.3661 31.1237 19.451 31.1034C19.5033 31.0909 19.5555 31.078 19.6078 31.0651C19.6816 31.0466 19.7552 31.0274 19.8287 31.0077C19.8916 30.9909 19.9546 30.9741 20.0173 30.9566C20.0751 30.9403 20.1327 30.9236 20.1902 30.9067C20.268 30.8841 20.3457 30.8612 20.423 30.8373C20.4576 30.8266 20.4919 30.8155 20.5263 30.8046C21.1327 30.613 21.728 30.3859 22.3079 30.1215V37.0617H22.3077ZM20.1621 28.4941C20.1161 28.5099 20.0701 28.5259 20.0239 28.5413C19.9538 28.5647 19.8833 28.5877 19.8126 28.61C19.7303 28.6359 19.6478 28.6608 19.5651 28.685C19.5067 28.7022 19.4483 28.7193 19.3896 28.7357C19.2802 28.7662 19.1703 28.7955 19.0601 28.8232C19.019 28.8336 18.9777 28.8434 18.9366 28.8534C18.8287 28.8795 18.7203 28.9044 18.6117 28.9278C18.5844 28.9338 18.5573 28.94 18.5299 28.9456C18.3898 28.9749 18.2491 29.0022 18.108 29.027C18.0936 29.0295 18.0791 29.0316 18.0647 29.0342C17.9375 29.0562 17.8099 29.0761 17.6821 29.0943C17.6533 29.0984 17.6245 29.1025 17.5955 29.1065C17.4591 29.125 17.3226 29.142 17.1855 29.1564C17.1804 29.157 17.1752 29.1577 17.1701 29.1582C17.0266 29.1731 16.8827 29.1854 16.7385 29.1956C16.7073 29.1979 16.6759 29.1995 16.6445 29.2016C16.5324 29.2089 16.4203 29.2146 16.3079 29.2191C16.2697 29.2207 16.2315 29.2223 16.1933 29.2235C16.0521 29.2278 15.9108 29.2308 15.7692 29.2308C15.6277 29.2308 15.4863 29.2279 15.3452 29.2234C15.3069 29.2222 15.2687 29.2205 15.2305 29.219C15.1181 29.2145 15.006 29.2087 14.8939 29.2015C14.8626 29.1995 14.8312 29.1977 14.7999 29.1955C14.6558 29.1852 14.5119 29.1729 14.3684 29.158C14.3632 29.1575 14.358 29.1568 14.3529 29.1562C14.2159 29.1419 14.0793 29.1248 13.943 29.1063C13.9141 29.1024 13.8853 29.0984 13.8564 29.0941C13.7285 29.0759 13.6009 29.056 13.4737 29.0341C13.4594 29.0316 13.4449 29.0294 13.4305 29.0268C13.2893 29.002 13.1486 28.9747 13.0085 28.9455C12.9812 28.9398 12.9541 28.9334 12.9267 28.9277C12.8181 28.9043 12.7098 28.8794 12.6019 28.8533C12.5606 28.8433 12.5194 28.8334 12.4784 28.823C12.3681 28.7954 12.2583 28.766 12.1488 28.7355C12.0902 28.7191 12.0317 28.702 11.9734 28.6848C11.8907 28.6605 11.8081 28.6357 11.7258 28.6098C11.6551 28.5875 11.5847 28.5645 11.5145 28.5411C11.4682 28.5257 11.4222 28.5098 11.3762 28.4939C6.10406 26.6688 2.30766 21.6543 2.30766 15.7692C2.30766 8.34656 8.34649 2.30766 15.7692 2.30766C23.192 2.30766 29.2308 8.34648 29.2308 15.7692C29.2308 21.6543 25.4343 26.6688 20.1621 28.4941Z" fill="white"/>
<path d="M22.6147 15.7692L24.782 11.6958C24.969 11.3445 24.9616 10.9216 24.7626 10.577C24.5636 10.2323 24.201 10.0145 23.8033 10.0007L19.192 9.84094L16.7479 5.92734C16.537 5.58984 16.1672 5.38469 15.7692 5.38469C15.3713 5.38469 15.0014 5.58984 14.7905 5.92734L12.3466 9.84094L7.73523 10.0007C7.3375 10.0145 6.97492 10.2323 6.77594 10.577C6.57695 10.9216 6.56953 11.3445 6.75656 11.6958L8.92383 15.7692L6.75656 19.8427C6.56953 20.194 6.57695 20.6169 6.77594 20.9615C6.97492 21.3061 7.3375 21.524 7.73523 21.5377L12.3466 21.6975L14.7905 25.6111C15.0013 25.9486 15.3713 26.1538 15.7692 26.1538C16.1672 26.1538 16.537 25.9486 16.7479 25.6111L19.1919 21.6975L23.8032 21.5377C24.2009 21.524 24.5635 21.3061 24.7625 20.9615C24.9615 20.6169 24.9689 20.194 24.7819 19.8427L22.6147 15.7692ZM18.4985 19.4124C18.115 19.4257 17.763 19.6289 17.5598 19.9545L15.7692 22.8217L13.9787 19.9545C13.7754 19.629 13.4235 19.4259 13.04 19.4125L9.66172 19.2954L11.2495 16.3112C11.4298 15.9723 11.4298 15.5661 11.2495 15.2273L9.66172 12.243L13.04 12.1259C13.4235 12.1127 13.7755 11.9095 13.9787 11.5839L15.7692 8.7168L17.5598 11.584C17.763 11.9095 18.1149 12.1127 18.4984 12.126L21.8767 12.2431L20.289 15.2273C20.1088 15.5662 20.1088 15.9725 20.2891 16.3112L21.8768 19.2955L18.4985 19.4124Z" fill="white"/>
</g>
<defs>
<filter id="filter0_d" x="0" y="0" width="31.5384" height="42" filterUnits="userSpaceOnUse" color-interpolation-filters="sRGB">
<feFlood flood-opacity="0" result="BackgroundImageFix"/>
<feColorMatrix in="SourceAlpha" type="matrix" values="0 0 0 0 0 0 0 0 0 0 0 0 0 0 0 0 0 0 127 0"/>
<feOffset dy="2"/>
<feColorMatrix type="matrix" values="0 0 0 0 0 0 0 0 0 0 0 0 0 0 0 0 0 0 0.25 0"/>
<feBlend mode="normal" in2="BackgroundImageFix" result="effect1_dropShadow"/>
<feBlend mode="normal" in="SourceGraphic" in2="effect1_dropShadow" result="shape"/>
</filter>
</defs>
</svg>
