<svg width="30" height="25" viewBox="0 0 30 25" fill="none" xmlns="http://www.w3.org/2000/svg">
<g opacity="0.8">
<path d="M25.6055 13.1498H22.6689C22.2692 13.1498 21.8822 13.2044 21.514 13.3048C20.7875 11.8768 19.3044 10.8956 17.5954 10.8956H12.4046C10.6956 10.8956 9.21246 11.8768 8.48602 13.3048C8.11775 13.2044 7.7308 13.1498 7.33113 13.1498H4.39453C1.97139 13.1498 0 15.1212 0 17.5443V22.2387C0 23.6926 1.18283 24.8754 2.63672 24.8754H27.3633C28.8172 24.8754 30 23.6926 30 22.2387V17.5443C30 15.1212 28.0286 13.1498 25.6055 13.1498ZM8.01006 15.2902V23.1177H2.63672C2.15209 23.1177 1.75781 22.7234 1.75781 22.2388V17.5444C1.75781 16.0905 2.94064 14.9077 4.39453 14.9077H7.33113C7.56973 14.9077 7.80076 14.9401 8.02072 14.9998C8.01439 15.0959 8.01006 15.1926 8.01006 15.2902ZM20.2321 23.1177H9.76787V15.2902C9.76787 13.8363 10.9507 12.6534 12.4046 12.6534H17.5954C19.0493 12.6534 20.2321 13.8363 20.2321 15.2902V23.1177ZM28.2422 22.2388C28.2422 22.7234 27.8479 23.1177 27.3633 23.1177H21.9899V15.2902C21.9899 15.1925 21.9856 15.0958 21.9793 14.9997C22.1992 14.9401 22.4303 14.9076 22.6689 14.9076H25.6055C27.0594 14.9076 28.2422 16.0904 28.2422 17.5443V22.2388Z" fill="#9E9E9E"/>
<path d="M5.86289 4.8501C3.70963 4.8501 1.95785 6.60187 1.95785 8.75514C1.95779 10.9084 3.70963 12.6602 5.86289 12.6602C8.01609 12.6602 9.76793 10.9084 9.76793 8.75514C9.76793 6.60187 8.01615 4.8501 5.86289 4.8501ZM5.86283 10.9024C4.67883 10.9024 3.71561 9.93914 3.71561 8.75514C3.71561 7.57113 4.67883 6.60791 5.86283 6.60791C7.04684 6.60791 8.01006 7.57113 8.01006 8.75514C8.01006 9.93914 7.04684 10.9024 5.86283 10.9024Z" fill="#9E9E9E"/>
<path d="M15 0C12.1233 0 9.78293 2.34035 9.78293 5.21707C9.78293 8.09379 12.1233 10.4341 15 10.4341C17.8767 10.4341 20.2171 8.09379 20.2171 5.21707C20.2171 2.34041 17.8767 0 15 0ZM15 8.67633C13.0925 8.67633 11.5407 7.12453 11.5407 5.21707C11.5407 3.30967 13.0925 1.75781 15 1.75781C16.9075 1.75781 18.4593 3.30961 18.4593 5.21707C18.4593 7.12453 16.9075 8.67633 15 8.67633Z" fill="#9E9E9E"/>
<path d="M24.1371 4.8501C21.9839 4.8501 20.2321 6.60187 20.2321 8.75514C20.2321 10.9084 21.9839 12.6602 24.1371 12.6602C26.2904 12.6602 28.0421 10.9084 28.0421 8.75514C28.0421 6.60187 26.2904 4.8501 24.1371 4.8501ZM24.1371 10.9024C22.9532 10.9024 21.9899 9.93914 21.9899 8.75514C21.9899 7.57113 22.9532 6.60791 24.1371 6.60791C25.3211 6.60791 26.2843 7.57113 26.2843 8.75514C26.2843 9.93914 25.3211 10.9024 24.1371 10.9024Z" fill="#9E9E9E"/>
</g>
</svg>
