<svg width="30" height="30" viewBox="0 0 30 30" fill="none" xmlns="http://www.w3.org/2000/svg">
<g opacity="0.8">
<path d="M29.1176 0C28.6304 0 28.2353 0.393516 28.2353 0.878906V4.216C27.3944 4.32932 26.8576 4.59633 26.3707 4.83891C25.8178 5.11441 25.3809 5.33203 24.4132 5.33203C23.4451 5.33203 23.0081 5.11441 22.4549 4.83891C21.8161 4.52074 21.0921 4.16016 19.7074 4.16016C18.3222 4.16016 17.5981 4.52068 16.9592 4.83885C16.4057 5.11436 15.9686 5.33203 15 5.33203C14.0314 5.33203 13.5943 5.11436 13.0408 4.83885C12.4019 4.52068 11.6777 4.16016 10.2926 4.16016C8.90788 4.16016 8.18388 4.52074 7.54518 4.83891C6.99194 5.11441 6.555 5.33203 5.58688 5.33203C4.61912 5.33203 4.18229 5.11441 3.62935 4.83891C3.14241 4.59633 2.60565 4.32932 1.76471 4.216V0.878906C1.76471 0.393516 1.36965 0 0.882353 0C0.395059 0 0 0.393516 0 0.878906V29.1211C0 29.6065 0.395059 30 0.882353 30H29.1176C29.6049 30 30 29.6065 30 29.1211V0.878906C30 0.393516 29.6049 0 29.1176 0ZM2.83988 6.41109C3.47853 6.72926 4.20235 7.08984 5.58688 7.08984C6.97165 7.08984 7.69565 6.72926 8.33435 6.41109C8.88753 6.13559 9.32453 5.91797 10.2926 5.91797C11.2612 5.91797 11.6984 6.13564 12.2519 6.41115C12.8908 6.72932 13.6149 7.08984 15 7.08984C16.3851 7.08984 17.1092 6.72932 17.7482 6.41115C18.3016 6.13564 18.7388 5.91797 19.7074 5.91797C20.6755 5.91797 21.1125 6.13559 21.6657 6.41109C22.3044 6.72926 23.0284 7.08984 24.4132 7.08984C25.7976 7.08984 26.5215 6.72926 27.1601 6.41109C27.5102 6.23666 27.8141 6.08566 28.2353 5.99818V28.2422H1.76471V5.99818C2.18588 6.08566 2.48982 6.23666 2.83988 6.41109Z" fill="#9E9E9E"/>
<path d="M13.2709 22.5817C12.9264 22.2385 12.3677 22.2385 12.0231 22.5817C11.6785 22.9249 11.6785 23.4814 12.0231 23.8246L14.3761 26.1684C14.5484 26.3399 14.7742 26.4258 15 26.4258C15.2258 26.4258 15.4516 26.3399 15.6239 26.1683L17.9768 23.8246C18.3214 23.4814 18.3214 22.9249 17.9768 22.5816C17.6323 22.2384 17.0736 22.2384 16.729 22.5816L15.8824 23.425V11.8484L16.7291 12.6918C16.9013 12.8634 17.1271 12.9492 17.3529 12.9492C17.5788 12.9492 17.8046 12.8634 17.9768 12.6918C18.3214 12.3486 18.3214 11.7921 17.9768 11.4488L15.6239 9.10506C15.2794 8.76188 14.7206 8.76188 14.3761 9.10506L12.0231 11.4488C11.6785 11.792 11.6785 12.3485 12.0231 12.6918C12.3676 13.0349 12.9264 13.0349 13.2709 12.6918L14.1176 11.8484V23.425L13.2709 22.5817Z" fill="#9E9E9E"/>
</g>
</svg>
