<svg width="50" height="16" viewBox="0 0 50 16" fill="none" xmlns="http://www.w3.org/2000/svg">
<path d="M46.6596 0.754883H43.5362C42.592 0.754883 41.8656 1.04543 41.4298 1.98969L35.4736 15.5726H39.6865C39.6865 15.5726 40.4129 13.7567 40.5581 13.3209C40.994 13.3209 45.1342 13.3209 45.7153 13.3209C45.8606 13.8293 46.2237 15.5 46.2237 15.5H50.0008L46.6596 0.754883ZM41.7203 10.2702C42.0835 9.39856 43.3183 6.12994 43.3183 6.12994C43.3183 6.20258 43.6815 5.25831 43.8268 4.74986L44.1173 6.0573C44.1173 6.0573 44.9163 9.61646 45.0616 10.3428H41.7203V10.2702Z" fill="#3362AB"/>
<path d="M35.764 10.7061C35.764 13.7568 33.0038 15.7906 28.7183 15.7906C26.9024 15.7906 25.1591 15.4275 24.2148 14.9917L24.7959 11.6504L25.3044 11.8683C26.6118 12.4494 27.4835 12.6673 29.0814 12.6673C30.2436 12.6673 31.4784 12.2315 31.4784 11.2146C31.4784 10.5609 30.97 10.125 29.372 9.39869C27.8466 8.67233 25.8128 7.51016 25.8128 5.40372C25.8128 2.49828 28.6456 0.537109 32.6406 0.537109C34.166 0.537109 35.4734 0.827653 36.2724 1.19083L35.6913 4.38681L35.4008 4.09627C34.6744 3.80573 33.7301 3.51518 32.3501 3.51518C30.8247 3.58782 30.0984 4.24154 30.0984 4.82263C30.0984 5.47635 30.97 5.9848 32.3501 6.63853C34.6744 7.72806 35.764 8.96287 35.764 10.7061Z" fill="#3362AB"/>
<path d="M0.317383 0.900895L0.390019 0.610352H6.63671C7.50834 0.610352 8.16206 0.900895 8.37997 1.84516L9.76005 8.38239C8.37997 4.89587 5.18399 2.06307 0.317383 0.900895Z" fill="#F9B50B"/>
<path d="M18.5491 0.755253L12.2298 15.5003H7.9443L4.3125 3.15224C6.92739 4.82286 9.10647 7.43776 9.90546 9.25365L10.3413 10.779L14.2636 0.682617H18.5491V0.755253Z" fill="#3362AB"/>
<path d="M20.22 0.682617H24.215L21.6727 15.5003H17.6777L20.22 0.682617Z" fill="#3362AB"/>
</svg>
